<svg id="Layer_1" data-name="Layer 1" xmlns="http://www.w3.org/2000/svg" xmlns:xlink="http://www.w3.org/1999/xlink" viewBox="0 0 323.04 354.49"><defs><linearGradient id="linear-gradient" x1="86.83" y1="240.99" x2="90.28" y2="240.99" gradientTransform="translate(-14.15 -37.76)" gradientUnits="userSpaceOnUse"><stop offset="0" stop-color="#dccbde"/><stop offset="1" stop-color="#b48db8"/></linearGradient><linearGradient id="linear-gradient-2" x1="89.64" y1="242.62" x2="93.08" y2="242.62" xlink:href="#linear-gradient"/><linearGradient id="linear-gradient-3" x1="123.32" y1="262.21" x2="126.77" y2="262.21" xlink:href="#linear-gradient"/><linearGradient id="linear-gradient-4" x1="84.46" y1="242.15" x2="88.67" y2="242.15" xlink:href="#linear-gradient"/><linearGradient id="linear-gradient-5" x1="87.27" y1="243.78" x2="91.48" y2="243.78" xlink:href="#linear-gradient"/><linearGradient id="linear-gradient-6" x1="115.34" y1="260.1" x2="119.55" y2="260.1" xlink:href="#linear-gradient"/><linearGradient id="linear-gradient-7" x1="112.53" y1="258.47" x2="116.75" y2="258.47" xlink:href="#linear-gradient"/><linearGradient id="linear-gradient-8" x1="109.72" y1="256.84" x2="113.94" y2="256.84" xlink:href="#linear-gradient"/><linearGradient id="linear-gradient-9" x1="106.92" y1="255.21" x2="111.13" y2="255.21" xlink:href="#linear-gradient"/><linearGradient id="linear-gradient-10" x1="104.11" y1="253.57" x2="108.33" y2="253.57" xlink:href="#linear-gradient"/><linearGradient id="linear-gradient-11" x1="101.3" y1="251.94" x2="105.52" y2="251.94" xlink:href="#linear-gradient"/><linearGradient id="linear-gradient-12" x1="98.49" y1="250.31" x2="102.71" y2="250.31" xlink:href="#linear-gradient"/><linearGradient id="linear-gradient-13" x1="95.69" y1="248.68" x2="99.9" y2="248.68" xlink:href="#linear-gradient"/><linearGradient id="linear-gradient-14" x1="92.88" y1="247.04" x2="97.1" y2="247.04" xlink:href="#linear-gradient"/><linearGradient id="linear-gradient-15" x1="90.07" y1="245.41" x2="94.29" y2="245.41" xlink:href="#linear-gradient"/><linearGradient id="linear-gradient-16" x1="118.15" y1="262.55" x2="125.17" y2="262.55" xlink:href="#linear-gradient"/><linearGradient id="linear-gradient-17" x1="82.17" y1="243.87" x2="87.76" y2="243.87" xlink:href="#linear-gradient"/><linearGradient id="linear-gradient-18" x1="118.69" y1="264.7" x2="122.89" y2="264.7" gradientTransform="translate(56.98)" xlink:href="#linear-gradient"/><linearGradient id="linear-gradient-19" x1="79.89" y1="245.38" x2="86.09" y2="245.38" xlink:href="#linear-gradient"/><linearGradient id="linear-gradient-20" x1="108.79" y1="261.6" x2="113" y2="261.6" xlink:href="#linear-gradient"/><linearGradient id="linear-gradient-21" x1="105.75" y1="259.87" x2="109.96" y2="259.87" xlink:href="#linear-gradient"/><linearGradient id="linear-gradient-22" x1="102.71" y1="258.13" x2="106.92" y2="258.13" xlink:href="#linear-gradient"/><linearGradient id="linear-gradient-23" x1="99.67" y1="256.39" x2="103.88" y2="256.39" xlink:href="#linear-gradient"/><linearGradient id="linear-gradient-24" x1="96.63" y1="254.65" x2="100.84" y2="254.65" xlink:href="#linear-gradient"/><linearGradient id="linear-gradient-25" x1="93.59" y1="252.91" x2="97.8" y2="252.91" xlink:href="#linear-gradient"/><linearGradient id="linear-gradient-26" x1="90.55" y1="251.17" x2="94.76" y2="251.17" xlink:href="#linear-gradient"/><linearGradient id="linear-gradient-27" x1="87.51" y1="249.43" x2="91.72" y2="249.43" xlink:href="#linear-gradient"/><linearGradient id="linear-gradient-28" x1="84.47" y1="247.69" x2="88.69" y2="247.69" xlink:href="#linear-gradient"/><linearGradient id="linear-gradient-29" x1="111.8" y1="263.36" x2="116.02" y2="263.36" xlink:href="#linear-gradient"/><linearGradient id="linear-gradient-30" x1="114.56" y1="265.49" x2="120.6" y2="265.49" xlink:href="#linear-gradient"/><linearGradient id="linear-gradient-31" x1="77.61" y1="246.94" x2="84.63" y2="246.94" xlink:href="#linear-gradient"/><linearGradient id="linear-gradient-32" x1="83.22" y1="249.39" x2="87.44" y2="249.39" xlink:href="#linear-gradient"/><linearGradient id="linear-gradient-33" x1="108.49" y1="264.09" x2="112.71" y2="264.09" xlink:href="#linear-gradient"/><linearGradient id="linear-gradient-34" x1="105.68" y1="262.45" x2="109.9" y2="262.45" xlink:href="#linear-gradient"/><linearGradient id="linear-gradient-35" x1="102.87" y1="260.82" x2="107.09" y2="260.82" xlink:href="#linear-gradient"/><linearGradient id="linear-gradient-36" x1="100.07" y1="259.18" x2="104.28" y2="259.18" xlink:href="#linear-gradient"/><linearGradient id="linear-gradient-37" x1="97.26" y1="257.55" x2="101.48" y2="257.55" xlink:href="#linear-gradient"/><linearGradient id="linear-gradient-38" x1="94.45" y1="255.91" x2="98.67" y2="255.91" xlink:href="#linear-gradient"/><linearGradient id="linear-gradient-39" x1="91.65" y1="254.28" x2="95.86" y2="254.28" xlink:href="#linear-gradient"/><linearGradient id="linear-gradient-40" x1="88.84" y1="252.64" x2="93.05" y2="252.64" xlink:href="#linear-gradient"/><linearGradient id="linear-gradient-41" x1="86.03" y1="251.01" x2="90.25" y2="251.01" xlink:href="#linear-gradient"/><linearGradient id="linear-gradient-42" x1="111.5" y1="266.6" x2="118.32" y2="266.6" xlink:href="#linear-gradient"/><linearGradient id="linear-gradient-43" x1="75.33" y1="247.46" x2="79.54" y2="247.46" gradientTransform="translate(56.98)" xlink:href="#linear-gradient"/><linearGradient id="linear-gradient-44" x1="78.13" y1="249.09" x2="82.35" y2="249.09" gradientTransform="translate(56.98)" xlink:href="#linear-gradient"/><linearGradient id="linear-gradient-45" x1="80.94" y1="250.72" x2="85.16" y2="250.72" gradientTransform="translate(56.98)" xlink:href="#linear-gradient"/><linearGradient id="linear-gradient-46" x1="83.69" y1="252.35" x2="87.91" y2="252.35" gradientTransform="translate(56.98)" xlink:href="#linear-gradient"/><linearGradient id="linear-gradient-47" x1="86.56" y1="258.88" x2="107.62" y2="258.88" xlink:href="#linear-gradient"/><linearGradient id="linear-gradient-48" x1="106.21" y1="265.68" x2="109.5" y2="265.68" xlink:href="#linear-gradient"/><linearGradient id="linear-gradient-49" x1="109.01" y1="267.05" x2="113.23" y2="267.05" xlink:href="#linear-gradient"/><linearGradient id="linear-gradient-50" x1="111.82" y1="268.95" x2="115.12" y2="268.95" xlink:href="#linear-gradient"/><linearGradient id="linear-gradient-51" x1="115.73" y1="262.98" x2="119.93" y2="262.98" gradientTransform="translate(56.98)" xlink:href="#linear-gradient"/><linearGradient id="linear-gradient-52" x1="112.77" y1="261.26" x2="116.97" y2="261.26" gradientTransform="translate(56.98)" xlink:href="#linear-gradient"/><linearGradient id="linear-gradient-53" x1="109.81" y1="259.54" x2="114.01" y2="259.54" gradientTransform="translate(56.98)" xlink:href="#linear-gradient"/><linearGradient id="linear-gradient-54" x1="106.85" y1="257.82" x2="111.05" y2="257.82" gradientTransform="translate(56.98)" xlink:href="#linear-gradient"/><linearGradient id="linear-gradient-55" x1="103.89" y1="256.1" x2="108.09" y2="256.1" gradientTransform="translate(56.98)" xlink:href="#linear-gradient"/><linearGradient id="linear-gradient-56" x1="100.93" y1="254.38" x2="105.13" y2="254.38" gradientTransform="translate(56.98)" xlink:href="#linear-gradient"/><linearGradient id="linear-gradient-57" x1="97.97" y1="252.66" x2="102.17" y2="252.66" gradientTransform="translate(56.98)" xlink:href="#linear-gradient"/><linearGradient id="linear-gradient-58" x1="95.01" y1="250.94" x2="99.21" y2="250.94" gradientTransform="translate(56.98)" xlink:href="#linear-gradient"/><linearGradient id="linear-gradient-59" x1="92.05" y1="249.22" x2="96.25" y2="249.22" gradientTransform="translate(56.98)" xlink:href="#linear-gradient"/><linearGradient id="linear-gradient-60" x1="89.09" y1="247.5" x2="93.29" y2="247.5" gradientTransform="translate(56.98)" xlink:href="#linear-gradient"/><linearGradient id="linear-gradient-61" x1="86.13" y1="245.78" x2="90.33" y2="245.78" gradientTransform="translate(56.98)" xlink:href="#linear-gradient"/><linearGradient id="linear-gradient-62" x1="120.52" y1="260.58" x2="123.96" y2="260.58" xlink:href="#linear-gradient"/><linearGradient id="linear-gradient-63" x1="117.71" y1="258.94" x2="121.16" y2="258.94" xlink:href="#linear-gradient"/><linearGradient id="linear-gradient-64" x1="114.9" y1="257.31" x2="118.35" y2="257.31" xlink:href="#linear-gradient"/><linearGradient id="linear-gradient-65" x1="112.1" y1="255.68" x2="115.54" y2="255.68" xlink:href="#linear-gradient"/><linearGradient id="linear-gradient-66" x1="109.29" y1="254.04" x2="112.73" y2="254.04" xlink:href="#linear-gradient"/><linearGradient id="linear-gradient-67" x1="106.48" y1="252.41" x2="109.93" y2="252.41" xlink:href="#linear-gradient"/><linearGradient id="linear-gradient-68" x1="103.67" y1="250.77" x2="107.12" y2="250.77" xlink:href="#linear-gradient"/><linearGradient id="linear-gradient-69" x1="100.87" y1="249.14" x2="104.31" y2="249.14" xlink:href="#linear-gradient"/><linearGradient id="linear-gradient-70" x1="98.06" y1="247.5" x2="101.5" y2="247.5" xlink:href="#linear-gradient"/><linearGradient id="linear-gradient-71" x1="95.25" y1="245.87" x2="98.7" y2="245.87" xlink:href="#linear-gradient"/><linearGradient id="linear-gradient-72" x1="92.44" y1="244.23" x2="95.89" y2="244.23" xlink:href="#linear-gradient"/><linearGradient id="linear-gradient-73" x1="122.33" y1="199.17" x2="125.22" y2="220.27" gradientTransform="translate(56.98)" gradientUnits="userSpaceOnUse"><stop offset="0" stop-color="#fff"/><stop offset="0.15" stop-color="#d0c4d7"/><stop offset="0.32" stop-color="#a38cb1"/><stop offset="0.48" stop-color="#7e5d92"/><stop offset="0.63" stop-color="#623979"/><stop offset="0.77" stop-color="#4d1f67"/><stop offset="0.9" stop-color="#400f5d"/><stop offset="1" stop-color="#3c0a59"/></linearGradient><linearGradient id="linear-gradient-74" x1="184.23" y1="235.04" x2="187.12" y2="256.15" xlink:href="#linear-gradient-73"/><clipPath id="clip-path" transform="translate(-71.13 -37.76)"><polygon points="205 319.26 151.12 287.78 182.03 248.92 114.83 196.27 90.62 193.95 47.71 355.53 138.29 400.79 205 319.26" style="fill:none"/></clipPath></defs><polygon points="137.77 354.49 130.78 350.31 130.78 279.17 137.77 283.36 137.77 354.49" style="fill:#8050f2"/><polygon points="16.15 283.88 9.16 279.69 9.16 206.02 16.15 210.21 16.15 283.88" style="fill:#8050f2"/><polygon points="16.15 283.88 94.82 240.27 57.55 187.29 16.15 210.21 16.15 283.88" style="fill:#623ca4"/><polygon points="209.9 310.95 137.77 354.49 137.77 283.36 209.9 239.81 209.9 310.95" style="fill:#623ca4"/><polygon points="137.62 283.7 5.99 206.64 5.99 202.28 212.21 234.5 212.21 238.85 137.62 283.7" style="fill:#a184e9"/><polygon points="137.62 279.34 5.99 202.28 81.56 156.19 212.21 234.5 137.62 279.34" style="fill:#99aff0"/><polygon points="137.62 279.34 5.99 202.28 81.56 156.19 212.21 234.5 137.62 279.34" style="fill:#c7b2fd"/><path d="M131.47,249.52,170,271.94a2.17,2.17,0,0,0,2,.08l15.48-7.41c.51-.29,1-6.76.35-4.66l-41.89-17.47a2.21,2.21,0,0,0-2-.09l-12.63,4.91C130.82,247.6,130.88,249.18,131.47,249.52Z" transform="translate(-71.13 -37.76)" style="fill:#7c4f84"/><path d="M131.47,248.46,170,270.88a2.21,2.21,0,0,0,2,.08s17.55-10.45,16.07-11.42l-38.79-22c-.58-.34-4.81,2.13-5.32,2.43l-12.63,7.34C130.82,247.6,130.88,248.11,131.47,248.46Z" transform="translate(-71.13 -37.76)" style="fill:#b48db8"/><polygon points="74.94 204.71 72.68 203.39 73.87 202.7 76.13 204.02 74.94 204.71" style="fill:#986c9e"/><polygon points="77.75 206.34 75.49 205.03 76.67 204.34 78.93 205.65 77.75 206.34" style="fill:#986c9e"/><polygon points="72.57 206.09 70.31 204.77 72.27 203.63 74.52 204.95 72.57 206.09" style="fill:#986c9e"/><polygon points="75.38 207.72 73.11 206.41 75.07 205.27 77.33 206.58 75.38 207.72" style="fill:#986c9e"/><polygon points="111.02 226.17 109.06 227.31 104 224.36 104 223.89 111.02 225.7 111.02 226.17" style="fill:#986c9e"/><polygon points="73.61 207.07 71.65 208.21 68.03 206.1 69.98 204.96 73.61 207.07" style="fill:#986c9e"/><polygon points="69.99 209.9 65.74 207.43 67.7 206.29 71.94 208.76 69.99 209.9" style="fill:#986c9e"/><polygon points="93.88 223.79 91.62 222.48 93.58 221.34 95.84 222.66 93.88 223.79" style="fill:#986c9e"/><polygon points="106.45 228.83 104.5 229.97 100.41 227.59 106.45 228.35 106.45 228.83" style="fill:#986c9e"/><polygon points="68.53 211.7 63.46 208.76 65.42 207.62 70.48 210.56 68.53 211.7" style="fill:#986c9e"/><polygon points="71.33 213.34 69.07 212.02 71.03 210.88 73.29 212.2 71.33 213.34" style="fill:#986c9e"/><polygon points="93.79 226.4 91.53 225.08 93.49 223.94 95.75 225.26 93.79 226.4" style="fill:#986c9e"/><polygon points="102.21 231.29 97.35 228.47 97.35 227.99 104.17 229.68 104.17 230.16 102.21 231.29" style="fill:#986c9e"/><polygon points="71.86 216.29 69.6 214.98 71.56 213.84 73.81 215.16 71.86 216.29" style="fill:#986c9e"/><polygon points="93.47 226.59 91.51 227.72 72.41 216.61 72.41 216.14 93.47 226.11 93.47 226.59" style="fill:#986c9e"/><polygon points="94.32 229.36 92.06 228.04 92.06 227.57 95.35 228.28 95.35 228.75 94.32 229.36" style="fill:#986c9e"/><polygon points="97.12 230.99 94.86 229.68 94.86 229.2 99.08 229.38 99.08 229.85 97.12 230.99" style="fill:#986c9e"/><polygon points="99.93 232.62 97.67 231.31 97.67 230.83 100.97 231.54 100.97 232.02 99.93 232.62" style="fill:#986c9e"/><rect x="72.68" y="202.87" width="1.39" height="0.52" style="fill:#986c9e"/><rect x="75.22" y="203.54" width="0.9" height="0.4" style="fill:#986c9e"/><rect x="77.42" y="205.17" width="1.51" height="0.44" style="fill:#986c9e"/><rect x="75.49" y="204.55" width="1.54" height="0.48" style="fill:#986c9e"/><rect x="73.12" y="205.93" width="1.97" height="0.49" style="fill:#986c9e"/><rect x="75.92" y="206.09" width="1.41" height="0.5" style="fill:#986c9e"/><rect x="70.35" y="204.23" width="1.61" height="0.48" style="fill:#986c9e"/><rect x="72.41" y="204.45" width="2.12" height="0.5" style="fill:#986c9e"/><rect x="68.02" y="205.61" width="1.77" height="0.48" style="fill:#986c9e"/><rect x="69.84" y="206.59" width="3.77" height="0.49" style="fill:#986c9e"/><rect x="65.74" y="206.95" width="1.42" height="0.46" style="fill:#986c9e"/><rect x="68.84" y="208.27" width="3.1" height="0.49" style="fill:#986c9e"/><rect x="66.28" y="210.1" width="4.2" height="0.46" style="fill:#986c9e"/><rect x="63.46" y="208.27" width="1.2" height="0.49" style="fill:#986c9e"/><rect x="70.82" y="211.73" width="2.47" height="0.46" style="fill:#986c9e"/><rect x="69.07" y="211.53" width="1.53" height="0.49" style="fill:#986c9e"/><polygon points="74.94 204.23 72.68 202.92 73.87 202.23 76.13 203.54 74.94 204.23" style="fill:url(#linear-gradient)"/><polygon points="77.75 205.86 75.49 204.55 76.67 203.86 78.93 205.17 77.75 205.86" style="fill:url(#linear-gradient-2)"/><polygon points="111.43 225.93 109.17 224.62 109.17 224.14 112.62 224.76 112.62 225.24 111.43 225.93" style="fill:#986c9e"/><polygon points="111.43 225.46 109.17 224.14 110.36 223.45 112.62 224.76 111.43 225.46" style="fill:url(#linear-gradient-3)"/><polygon points="72.57 205.61 70.31 204.3 72.27 203.16 74.52 204.47 72.57 205.61" style="fill:url(#linear-gradient-4)"/><polygon points="75.38 207.24 73.11 205.93 75.07 204.79 77.33 206.1 75.38 207.24" style="fill:url(#linear-gradient-5)"/><polygon points="103.45 224.05 101.19 222.73 101.19 222.25 105.41 222.43 105.41 222.91 103.45 224.05" style="fill:#986c9e"/><polygon points="103.45 223.57 101.19 222.25 103.14 221.12 105.41 222.43 103.45 223.57" style="fill:url(#linear-gradient-6)"/><polygon points="100.64 222.41 98.38 221.1 98.38 220.62 102.6 220.8 102.6 221.28 100.64 222.41" style="fill:#986c9e"/><polygon points="100.64 221.94 98.38 220.62 100.34 219.48 102.6 220.8 100.64 221.94" style="fill:url(#linear-gradient-7)"/><polygon points="97.83 220.78 95.57 219.47 95.57 218.99 99.79 219.17 99.79 219.64 97.83 220.78" style="fill:#986c9e"/><polygon points="97.83 220.3 95.57 218.99 97.53 217.85 99.79 219.17 97.83 220.3" style="fill:url(#linear-gradient-8)"/><polygon points="95.03 219.15 92.77 217.83 92.77 217.36 96.98 217.53 96.98 218.01 95.03 219.15" style="fill:#986c9e"/><polygon points="95.03 218.67 92.77 217.36 94.72 216.22 96.98 217.53 95.03 218.67" style="fill:url(#linear-gradient-9)"/><polygon points="92.22 217.51 89.96 216.2 89.96 215.72 94.17 215.9 94.17 216.38 92.22 217.51" style="fill:#986c9e"/><polygon points="92.22 217.04 89.96 215.72 91.92 214.59 94.17 215.9 92.22 217.04" style="fill:url(#linear-gradient-10)"/><polygon points="89.41 215.88 87.15 214.57 87.15 214.09 91.37 214.27 91.37 214.74 89.41 215.88" style="fill:#986c9e"/><polygon points="89.41 215.41 87.15 214.09 89.11 212.95 91.37 214.27 89.41 215.41" style="fill:url(#linear-gradient-11)"/><polygon points="86.6 214.25 84.34 212.94 84.34 212.46 88.56 212.64 88.56 213.11 86.6 214.25" style="fill:#986c9e"/><polygon points="86.6 213.77 84.34 212.46 86.3 211.32 88.56 212.64 86.6 213.77" style="fill:url(#linear-gradient-12)"/><polygon points="83.8 212.62 81.54 211.3 81.54 210.83 85.75 211 85.75 211.48 83.8 212.62" style="fill:#986c9e"/><polygon points="83.8 212.14 81.54 210.83 83.49 209.69 85.75 211 83.8 212.14" style="fill:url(#linear-gradient-13)"/><polygon points="80.99 210.99 78.73 209.67 78.73 209.19 82.95 209.37 82.95 209.85 80.99 210.99" style="fill:#986c9e"/><polygon points="80.99 210.51 78.73 209.19 80.69 208.06 82.95 209.37 80.99 210.51" style="fill:url(#linear-gradient-14)"/><polygon points="78.18 209.35 75.92 208.04 75.92 207.56 80.14 207.74 80.14 208.21 78.18 209.35" style="fill:#986c9e"/><polygon points="78.18 208.88 75.92 207.56 77.88 206.42 80.14 207.74 78.18 208.88" style="fill:url(#linear-gradient-15)"/><polygon points="111.02 225.7 109.06 226.84 104 223.89 105.95 222.75 111.02 225.7" style="fill:url(#linear-gradient-16)"/><polygon points="73.61 206.6 71.65 207.73 68.03 205.62 69.98 204.49 73.61 206.6" style="fill:url(#linear-gradient-17)"/><polygon points="106.78 228.16 104.52 226.85 104.52 227.32 106.78 228.64 108.74 227.5 108.74 227.03 106.78 228.16" style="fill:#986c9e"/><path d="M179.87,264.79l-2.26-1.32-1.93,1.13s2.23,1.32,2.23,1.32Z" transform="translate(-71.13 -37.76)" style="fill:url(#linear-gradient-18)"/><polygon points="69.99 209.42 65.74 206.95 67.7 205.81 71.94 208.28 69.99 209.42" style="fill:url(#linear-gradient-19)"/><polygon points="96.9 225.07 94.64 223.76 94.64 224.23 96.9 225.55 98.85 224.41 98.85 223.93 96.9 225.07" style="fill:#986c9e"/><polygon points="98.85 223.93 96.59 222.62 94.64 223.76 96.9 225.07 98.85 223.93" style="fill:url(#linear-gradient-20)"/><polygon points="93.86 223.33 91.6 222.02 91.6 222.49 93.86 223.81 95.81 222.67 95.81 222.19 93.86 223.33" style="fill:#986c9e"/><polygon points="95.81 222.19 93.55 220.88 91.6 222.02 93.86 223.33 95.81 222.19" style="fill:url(#linear-gradient-21)"/><polygon points="90.82 221.59 88.56 220.28 88.56 220.75 90.82 222.07 92.77 220.93 92.77 220.45 90.82 221.59" style="fill:#986c9e"/><polygon points="92.77 220.45 90.51 219.14 88.56 220.28 90.82 221.59 92.77 220.45" style="fill:url(#linear-gradient-22)"/><polygon points="87.78 219.85 85.52 218.54 85.52 219.02 87.78 220.33 89.73 219.19 89.73 218.72 87.78 219.85" style="fill:#986c9e"/><polygon points="89.73 218.72 87.47 217.4 85.52 218.54 87.78 219.85 89.73 218.72" style="fill:url(#linear-gradient-23)"/><polygon points="84.74 218.12 82.48 216.8 82.48 217.28 84.74 218.59 86.69 217.45 86.69 216.98 84.74 218.12" style="fill:#986c9e"/><polygon points="86.69 216.98 84.43 215.66 82.48 216.8 84.74 218.12 86.69 216.98" style="fill:url(#linear-gradient-24)"/><polygon points="81.7 216.38 79.44 215.06 79.44 215.54 81.7 216.85 83.66 215.71 83.66 215.24 81.7 216.38" style="fill:#986c9e"/><polygon points="83.66 215.24 81.39 213.92 79.44 215.06 81.7 216.38 83.66 215.24" style="fill:url(#linear-gradient-25)"/><polygon points="78.66 214.64 76.4 213.32 76.4 213.8 78.66 215.11 80.61 213.97 80.61 213.5 78.66 214.64" style="fill:#986c9e"/><polygon points="80.61 213.5 78.36 212.19 76.4 213.32 78.66 214.64 80.61 213.5" style="fill:url(#linear-gradient-26)"/><polygon points="75.62 212.9 73.36 211.58 73.36 212.06 75.62 213.38 77.58 212.24 77.58 211.76 75.62 212.9" style="fill:#986c9e"/><polygon points="77.58 211.76 75.31 210.44 73.36 211.58 75.62 212.9 77.58 211.76" style="fill:url(#linear-gradient-27)"/><polygon points="72.58 211.16 70.32 209.84 70.32 210.32 72.58 211.63 74.54 210.5 74.54 210.02 72.58 211.16" style="fill:#986c9e"/><polygon points="74.54 210.02 72.28 208.71 70.32 209.84 72.58 211.16 74.54 210.02" style="fill:url(#linear-gradient-28)"/><polygon points="99.91 226.82 97.65 225.51 97.65 225.98 99.91 227.3 101.87 226.16 101.87 225.68 99.91 226.82" style="fill:#986c9e"/><polygon points="101.87 225.68 99.61 224.37 97.65 225.51 99.91 226.82 101.87 225.68" style="fill:url(#linear-gradient-29)"/><polygon points="106.45 228.35 104.5 229.49 100.41 227.11 102.36 225.97 106.45 228.35" style="fill:url(#linear-gradient-30)"/><polygon points="68.53 211.22 63.46 208.28 65.42 207.14 70.48 210.09 68.53 211.22" style="fill:url(#linear-gradient-31)"/><polygon points="71.33 212.86 69.07 211.54 71.03 210.41 73.29 211.72 71.33 212.86" style="fill:url(#linear-gradient-32)"/><polygon points="96.6 227.55 94.34 226.24 94.34 226.72 96.6 228.03 98.56 226.89 98.56 226.41 96.6 227.55" style="fill:#986c9e"/><polygon points="98.56 226.41 96.3 225.1 94.34 226.24 96.6 227.55 98.56 226.41" style="fill:url(#linear-gradient-33)"/><polygon points="93.79 225.92 91.53 224.6 91.53 225.08 93.79 226.39 95.75 225.26 95.75 224.78 93.79 225.92" style="fill:#986c9e"/><polygon points="95.75 224.78 93.49 223.47 91.53 224.6 93.79 225.92 95.75 224.78" style="fill:url(#linear-gradient-34)"/><polygon points="90.98 224.28 88.72 222.97 88.72 223.44 90.98 224.76 92.94 223.62 92.94 223.15 90.98 224.28" style="fill:#986c9e"/><polygon points="92.94 223.15 90.68 221.83 88.72 222.97 90.98 224.28 92.94 223.15" style="fill:url(#linear-gradient-35)"/><polygon points="88.18 222.65 85.92 221.33 85.92 221.81 88.18 223.13 90.13 221.99 90.13 221.51 88.18 222.65" style="fill:#986c9e"/><polygon points="90.13 221.51 87.87 220.2 85.92 221.33 88.18 222.65 90.13 221.51" style="fill:url(#linear-gradient-36)"/><polygon points="85.37 221.01 83.11 219.7 83.11 220.18 85.37 221.49 87.33 220.35 87.33 219.88 85.37 221.01" style="fill:#986c9e"/><polygon points="87.33 219.88 85.07 218.56 83.11 219.7 85.37 221.01 87.33 219.88" style="fill:url(#linear-gradient-37)"/><polygon points="82.56 219.38 80.3 218.06 80.3 218.54 82.56 219.85 84.52 218.72 84.52 218.24 82.56 219.38" style="fill:#986c9e"/><polygon points="84.52 218.24 82.26 216.93 80.3 218.06 82.56 219.38 84.52 218.24" style="fill:url(#linear-gradient-38)"/><polygon points="79.75 217.74 77.5 216.43 77.5 216.91 79.75 218.22 81.71 217.08 81.71 216.61 79.75 217.74" style="fill:#986c9e"/><polygon points="81.71 216.61 79.45 215.29 77.5 216.43 79.75 217.74 81.71 216.61" style="fill:url(#linear-gradient-39)"/><polygon points="76.95 216.11 74.69 214.79 74.69 215.27 76.95 216.59 78.91 215.45 78.91 214.97 76.95 216.11" style="fill:#986c9e"/><polygon points="78.91 214.97 76.64 213.66 74.69 214.79 76.95 216.11 78.91 214.97" style="fill:url(#linear-gradient-40)"/><polygon points="74.14 214.47 71.88 213.16 71.88 213.64 74.14 214.95 76.1 213.81 76.1 213.34 74.14 214.47" style="fill:#986c9e"/><polygon points="76.1 213.34 73.84 212.02 71.88 213.16 74.14 214.47 76.1 213.34" style="fill:url(#linear-gradient-41)"/><polygon points="102.21 230.82 97.35 227.99 99.31 226.85 104.17 229.68 102.21 230.82" style="fill:url(#linear-gradient-42)"/><path d="M134.57,248.68l-2.26-1.31v.49s2.26,1.3,2.26,1.3l2-1.14v-.48Z" transform="translate(-71.13 -37.76)" style="fill:#986c9e"/><path d="M134.27,246.23l-2,1.14,2.26,1.31,2-1.14Z" transform="translate(-71.13 -37.76)" style="fill:url(#linear-gradient-43)"/><path d="M137.38,250.31,135.12,249v.46s2.26,1.33,2.26,1.33l2-1.14v-.47Z" transform="translate(-71.13 -37.76)" style="fill:#986c9e"/><path d="M137.08,247.86l-2,1.14,2.26,1.31,2-1.13Z" transform="translate(-71.13 -37.76)" style="fill:url(#linear-gradient-44)"/><path d="M140.19,252l-2.26-1.32v.47s2.26,1.32,2.26,1.32l1.95-1.13v-.48Z" transform="translate(-71.13 -37.76)" style="fill:#986c9e"/><path d="M139.88,249.49l-1.95,1.14,2.26,1.32,1.95-1.14Z" transform="translate(-71.13 -37.76)" style="fill:url(#linear-gradient-45)"/><path d="M142.94,253.57l-2.26-1.31v.46s2.26,1.33,2.26,1.33l2-1.14v-.47Z" transform="translate(-71.13 -37.76)" style="fill:#986c9e"/><path d="M142.64,251.12l-2,1.14,2.26,1.31,2-1.13Z" transform="translate(-71.13 -37.76)" style="fill:url(#linear-gradient-46)"/><polygon points="93.47 226.11 91.51 227.25 72.41 216.14 74.36 215 93.47 226.11" style="fill:url(#linear-gradient-47)"/><polygon points="94.32 228.88 92.06 227.57 93.09 226.96 95.35 228.28 94.32 228.88" style="fill:url(#linear-gradient-48)"/><polygon points="97.12 230.51 94.86 229.2 96.82 228.06 99.08 229.38 97.12 230.51" style="fill:url(#linear-gradient-49)"/><polygon points="99.93 232.15 97.67 230.83 98.71 230.23 100.97 231.54 99.93 232.15" style="fill:url(#linear-gradient-50)"/><polygon points="103.82 226.44 101.56 225.13 101.56 225.61 103.82 226.92 105.78 225.78 105.78 225.31 103.82 226.44" style="fill:#986c9e"/><path d="M176.91,263.07l-2.26-1.32-1.93,1.13S175,264.2,175,264.2Z" transform="translate(-71.13 -37.76)" style="fill:url(#linear-gradient-51)"/><polygon points="100.86 224.72 98.6 223.41 98.6 223.89 100.86 225.2 102.82 224.06 102.82 223.59 100.86 224.72" style="fill:#986c9e"/><path d="M174,261.35,171.69,260l-1.93,1.13s2.23,1.32,2.23,1.32Z" transform="translate(-71.13 -37.76)" style="fill:url(#linear-gradient-52)"/><polygon points="97.9 223 95.64 221.69 95.64 222.17 97.9 223.48 99.86 222.34 99.86 221.87 97.9 223" style="fill:#986c9e"/><path d="M171,259.63l-2.26-1.32-1.93,1.13s2.23,1.33,2.23,1.33Z" transform="translate(-71.13 -37.76)" style="fill:url(#linear-gradient-53)"/><polygon points="94.94 221.28 92.68 219.97 92.68 220.45 94.94 221.76 96.9 220.62 96.9 220.15 94.94 221.28" style="fill:#986c9e"/><path d="M168,257.91l-2.26-1.32-1.93,1.13s2.23,1.33,2.23,1.33Z" transform="translate(-71.13 -37.76)" style="fill:url(#linear-gradient-54)"/><polygon points="91.98 219.57 89.72 218.25 89.72 218.73 91.98 220.04 93.94 218.9 93.94 218.43 91.98 219.57" style="fill:#986c9e"/><path d="M165.07,256.19l-2.26-1.32L160.88,256s2.24,1.33,2.24,1.33Z" transform="translate(-71.13 -37.76)" style="fill:url(#linear-gradient-55)"/><polygon points="89.02 217.85 86.76 216.53 86.76 217.01 89.02 218.32 90.98 217.19 90.98 216.71 89.02 217.85" style="fill:#986c9e"/><path d="M162.11,254.47l-2.26-1.31-1.93,1.12s2.23,1.33,2.23,1.33Z" transform="translate(-71.13 -37.76)" style="fill:url(#linear-gradient-56)"/><polygon points="86.06 216.13 83.8 214.81 83.8 215.29 86.06 216.6 88.02 215.47 88.02 214.99 86.06 216.13" style="fill:#986c9e"/><path d="M159.15,252.75l-2.26-1.31L155,252.56s2.24,1.33,2.24,1.33Z" transform="translate(-71.13 -37.76)" style="fill:url(#linear-gradient-57)"/><polygon points="83.1 214.41 80.84 213.09 80.84 213.57 83.1 214.88 85.06 213.75 85.06 213.27 83.1 214.41" style="fill:#986c9e"/><path d="M156.19,251l-2.26-1.31L152,250.84s2.24,1.33,2.24,1.33Z" transform="translate(-71.13 -37.76)" style="fill:url(#linear-gradient-58)"/><polygon points="80.14 212.69 77.88 211.37 77.88 211.85 80.14 213.16 82.1 212.03 82.1 211.55 80.14 212.69" style="fill:#986c9e"/><path d="M153.23,249.31,151,248,149,249.12s2.24,1.33,2.24,1.33Z" transform="translate(-71.13 -37.76)" style="fill:url(#linear-gradient-59)"/><polygon points="77.18 210.97 74.92 209.66 74.92 210.13 77.18 211.44 79.14 210.31 79.14 209.83 77.18 210.97" style="fill:#986c9e"/><path d="M150.27,247.59,148,246.28l-1.93,1.12s2.24,1.33,2.24,1.33Z" transform="translate(-71.13 -37.76)" style="fill:url(#linear-gradient-60)"/><polygon points="74.22 209.25 71.96 207.94 71.96 208.41 74.22 209.73 76.18 208.59 76.18 208.11 74.22 209.25" style="fill:#986c9e"/><path d="M147.31,245.87l-2.26-1.31-1.93,1.12s2.24,1.33,2.24,1.33Z" transform="translate(-71.13 -37.76)" style="fill:url(#linear-gradient-61)"/><polygon points="108.63 224.3 106.37 222.98 106.37 222.51 109.81 223.13 109.81 223.61 108.63 224.3" style="fill:#986c9e"/><polygon points="108.63 223.82 106.37 222.51 107.55 221.82 109.81 223.13 108.63 223.82" style="fill:url(#linear-gradient-62)"/><polygon points="105.82 222.66 103.56 221.35 103.56 220.87 107.01 221.5 107.01 221.97 105.82 222.66" style="fill:#986c9e"/><polygon points="105.82 222.19 103.56 220.87 104.75 220.18 107.01 221.5 105.82 222.19" style="fill:url(#linear-gradient-63)"/><polygon points="103.01 221.03 100.75 219.71 100.75 219.24 104.2 219.86 104.2 220.34 103.01 221.03" style="fill:#986c9e"/><polygon points="103.01 220.55 100.75 219.24 101.94 218.55 104.2 219.86 103.01 220.55" style="fill:url(#linear-gradient-64)"/><polygon points="100.2 219.39 97.94 218.08 97.94 217.6 101.39 218.23 101.39 218.7 100.2 219.39" style="fill:#986c9e"/><polygon points="100.2 218.92 97.94 217.6 99.13 216.91 101.39 218.23 100.2 218.92" style="fill:url(#linear-gradient-65)"/><polygon points="97.4 217.76 95.14 216.44 95.14 215.97 98.58 216.59 98.58 217.07 97.4 217.76" style="fill:#986c9e"/><polygon points="97.4 217.28 95.14 215.97 96.33 215.28 98.58 216.59 97.4 217.28" style="fill:url(#linear-gradient-66)"/><polygon points="94.59 216.12 92.33 214.81 92.33 214.33 95.78 214.96 95.78 215.43 94.59 216.12" style="fill:#986c9e"/><polygon points="94.59 215.65 92.33 214.33 93.52 213.64 95.78 214.96 94.59 215.65" style="fill:url(#linear-gradient-67)"/><polygon points="91.78 214.49 89.52 213.17 89.52 212.7 92.97 213.32 92.97 213.8 91.78 214.49" style="fill:#986c9e"/><polygon points="91.78 214.01 89.52 212.7 90.71 212.01 92.97 213.32 91.78 214.01" style="fill:url(#linear-gradient-68)"/><polygon points="88.98 212.85 86.72 211.54 86.72 211.06 90.16 211.69 90.16 212.16 88.98 212.85" style="fill:#986c9e"/><polygon points="88.98 212.38 86.72 211.06 87.9 210.37 90.16 211.69 88.98 212.38" style="fill:url(#linear-gradient-69)"/><polygon points="86.17 211.22 83.91 209.91 83.91 209.43 87.36 210.05 87.36 210.53 86.17 211.22" style="fill:#986c9e"/><polygon points="86.17 210.74 83.91 209.43 85.09 208.74 87.36 210.05 86.17 210.74" style="fill:url(#linear-gradient-70)"/><polygon points="83.36 209.58 81.1 208.27 81.1 207.79 84.55 208.42 84.55 208.9 83.36 209.58" style="fill:#986c9e"/><polygon points="83.36 209.11 81.1 207.79 82.29 207.1 84.55 208.42 83.36 209.11" style="fill:url(#linear-gradient-71)"/><polygon points="80.55 207.95 78.3 206.63 78.3 206.16 81.74 206.78 81.74 207.26 80.55 207.95" style="fill:#986c9e"/><polygon points="80.55 207.47 78.3 206.16 79.48 205.47 81.74 206.78 80.55 207.47" style="fill:url(#linear-gradient-72)"/><polygon points="61.6 206.59 88.01 191.34 72.08 182.14 45.67 197.38 61.6 206.59" style="fill:#fcd838"/><path d="M166.31,228.31l29.25,17s6.6-5,10.55-6.16L175,221.07a44.65,44.65,0,0,0-10.52,6.1,20.54,20.54,0,0,0,1.81,1.14Z" transform="translate(-71.13 -37.76)" style="fill:#b48db8"/><g style="opacity:0.31"><path d="M166.32,228.28c2.49,1.33,5,2.63,7.45,4l3.7,2,3.67,2.1c2.45,1.39,4.89,2.8,7.32,4.25l3.64,2.15c1.21.71,2.41,1.47,3.61,2.2l-.46.26a6.31,6.31,0,0,1,.52-.51,3.15,3.15,0,0,1,.29-.22l.23-.16.92-.62c.6-.43,1.24-.81,1.88-1.19L200,242c.31-.19.65-.35,1-.53l2-1s-1.89,1.16-1.89,1.16c-.31.19-.64.36-1,.57l-.92.61c-.62.41-1.24.8-1.84,1.24l-1.77,1.27c-.06,0-29.31-17-29.31-17Z" transform="translate(-71.13 -37.76)" style="fill:#a27fb0"/></g><path d="M206.11,239.15a44.78,44.78,0,0,0-10.55,6.13v2.17l10.59-6.15v-2.17Z" transform="translate(-71.13 -37.76)" style="fill:#7c4f84"/><path d="M166.31,228.31l-1.87-1.09c0,.72,0,1.45,0,2.17l31.13,18.1v-2.18Z" transform="translate(-71.13 -37.76)" style="fill:#956b9b"/><path d="M183.15,219.54v12.85a1.08,1.08,0,0,0,.63.88,3.35,3.35,0,0,0,3,0,1.08,1.08,0,0,0,.63-.88V219.54Z" transform="translate(-71.13 -37.76)" style="fill:#a27fb0"/><polygon points="124.29 194.89 122.31 193.73 122.31 193.24 124.29 194.39 124.29 194.89" style="fill:#b48db8"/><polygon points="126.82 196.36 124.84 195.2 124.84 194.71 126.82 195.86 126.82 196.36" style="fill:#b48db8"/><polygon points="129.35 197.83 127.37 196.68 127.37 196.18 129.35 197.33 129.35 197.83" style="fill:#b48db8"/><path d="M207.77,199l-53.68-31.21a1.14,1.14,0,0,0-.81-.19,10.45,10.45,0,0,0-1.55.85l.88,1.64v35.35a3.3,3.3,0,0,0,1.48,2.59l53,30.84.28,1.28,1.16-.71c.42-.06.71-.43.71-1V201.58A3.33,3.33,0,0,0,207.77,199Z" transform="translate(-71.13 -37.76)" style="fill:#7c4f84"/><path d="M206.52,240l-53.67-31.21a3.33,3.33,0,0,1-1.49-2.6V169.36a1.11,1.11,0,0,1,.37-.93,1,1,0,0,1,1.12.06l53.67,31.22A3.28,3.28,0,0,1,208,202.3v36.79C208,240,207.35,240.43,206.52,240Z" transform="translate(-71.13 -37.76)" style="fill:#956b9b"/><path d="M207.39,201.94v35.38c0,.53-.4.73-.87.46l-53.67-31.22a1.92,1.92,0,0,1-.86-1.5V169.72c0-.31.11-.51.31-.58a.58.58,0,0,1,.55.08l53.67,31.21A1.94,1.94,0,0,1,207.39,201.94Z" transform="translate(-71.13 -37.76)" style="fill:#b48db8"/><path d="M207.38,201.93v35.39a.62.62,0,0,1-.55-.1L153.16,206a1.93,1.93,0,0,1-.87-1.51V169.13a.66.66,0,0,1,.56.08l53.67,31.22A1.9,1.9,0,0,1,207.38,201.93Z" transform="translate(-71.13 -37.76)" style="fill:#190128"/><polygon points="101.97 147.33 82.81 136.26 82.81 134.35 101.97 145.41 101.97 147.33" style="fill:#b48db8"/><polygon points="117.32 156.19 108.22 150.93 108.22 149.02 117.32 154.27 117.32 156.19" style="fill:#b48db8"/><polygon points="91.74 149 82.81 143.84 82.81 141.92 91.74 147.08 91.74 149" style="fill:#b48db8"/><polygon points="97.24 152.17 93.38 149.94 93.38 148.02 97.24 150.25 97.24 152.17" style="fill:#b48db8"/><polygon points="102.07 154.96 98.48 152.89 98.48 150.97 102.07 153.04 102.07 154.96" style="fill:#b48db8"/><polygon points="93.38 154.16 82.81 148.06 82.81 146.14 93.38 152.25 93.38 154.16" style="fill:#b48db8"/><polygon points="98.39 157.05 94.74 154.95 94.74 153.03 98.39 155.13 98.39 157.05" style="fill:#fb7d5d"/><polygon points="98.31 161.23 82.81 152.28 82.81 150.37 98.31 159.31 98.31 161.23" style="fill:#fb7d5d"/><polygon points="102.85 163.86 97.7 160.88 97.7 158.96 102.85 161.94 102.85 163.86" style="fill:#b48db8"/><polygon points="108.38 167.05 104.18 164.62 104.18 162.7 108.38 165.13 108.38 167.05" style="fill:#b48db8"/><polygon points="93.06 162.42 82.81 156.51 82.81 154.59 93.06 160.51 93.06 162.42" style="fill:#b48db8"/><polygon points="98.02 165.29 94.46 163.24 94.46 161.32 98.02 163.37 98.02 165.29" style="fill:#b48db8"/><polygon points="93.83 167.09 82.81 160.73 82.81 158.81 93.83 165.18 93.83 167.09" style="fill:#b48db8"/><polygon points="97.74 169.35 94.74 167.62 94.74 165.7 97.74 167.44 97.74 169.35" style="fill:#b48db8"/><polygon points="104.12 173.04 99 170.08 99 168.16 104.12 171.12 104.12 173.04" style="fill:#fb7d5d"/><polygon points="93.31 171.01 82.81 164.96 82.81 163.04 93.31 169.1 93.31 171.01" style="fill:#b48db8"/><polygon points="98.61 174.08 93.88 171.34 93.88 169.43 98.61 172.16 98.61 174.08" style="fill:#fb7d5d"/><polygon points="108.73 154.33 82.81 139.36 82.81 137.44 108.73 152.41 108.73 154.33" style="fill:#b48db8"/><polygon points="125.18 163.82 111.12 155.71 111.12 153.79 125.18 161.91 125.18 163.82" style="fill:#b48db8"/><polygon points="131.88 199.3 129.9 198.15 129.9 197.65 131.88 198.8 131.88 199.3" style="fill:#b48db8"/><polygon points="129.6 197.94 127.62 196.79 127.62 196.29 129.6 197.44 129.6 197.94" style="fill:#b48db8"/><path d="M205.66,238.42c0,.49-.34.68-.76.44a1.69,1.69,0,0,1-.76-1.32c0-.49.34-.69.76-.45A1.71,1.71,0,0,1,205.66,238.42Z" transform="translate(-71.13 -37.76)" style="fill:#a27fb0"/><path d="M205.24,239.46a1.13,1.13,0,0,1-.59-.17,2.18,2.18,0,0,1-1-1.75,1,1,0,0,1,1.5-.88,2.21,2.21,0,0,1,1,1.76A.94.94,0,0,1,205.24,239.46Zm-.6-1.94a1.2,1.2,0,0,0,.51.91,1.11,1.11,0,0,0-.5-.9Z" transform="translate(-71.13 -37.76)" style="fill:#b48db8"/><path d="M207.38,201.77v35.17a.64.64,0,0,1-.55-.09l-53.67-31.22a1.91,1.91,0,0,1-.87-1.5v-2a61.83,61.83,0,0,1,22.84-4.91C196.31,197.23,204.62,201.14,207.38,201.77Z" transform="translate(-71.13 -37.76)" style="opacity:0.06;fill:url(#linear-gradient-73)"/><path d="M228.21,264.18l29.25,17s6.6-5,10.54-6.17l-31.08-18.08a44.86,44.86,0,0,0-10.52,6.11c-.06,0,1.81,1.13,1.81,1.13Z" transform="translate(-71.13 -37.76)" style="fill:#b48db8"/><g style="opacity:0.31"><path d="M228.22,264.16c2.49,1.32,5,2.63,7.45,4l3.7,2.05,3.67,2.1q3.68,2.08,7.31,4.25l3.65,2.16c1.21.71,2.41,1.46,3.61,2.19l-.46.27a4.2,4.2,0,0,1,.52-.51l.28-.23.23-.15.93-.63c.6-.43,1.24-.8,1.87-1.19l.95-.57c.32-.2.66-.36,1-.53l2-1S263,277.5,263,277.5c-.32.19-.64.36-1,.56l-.92.61c-.62.41-1.24.81-1.84,1.25l-1.78,1.27c-.05,0-29.3-17-29.3-17Z" transform="translate(-71.13 -37.76)" style="fill:#a27fb0"/></g><path d="M268,275a44.63,44.63,0,0,0-10.54,6.14v2.17l10.59-6.16V275Z" transform="translate(-71.13 -37.76)" style="fill:#7c4f84"/><path d="M228.21,264.18l-1.87-1.09c0,.73,0,1.45,0,2.17l31.13,18.1v-2.17Z" transform="translate(-71.13 -37.76)" style="fill:#956b9b"/><path d="M245.05,255.41v12.85a1.07,1.07,0,0,0,.63.88,3.29,3.29,0,0,0,3,0,1.07,1.07,0,0,0,.63-.88V255.41Z" transform="translate(-71.13 -37.76)" style="fill:#a27fb0"/><polygon points="186.19 230.76 184.21 229.61 184.21 229.11 186.19 230.26 186.19 230.76" style="fill:#b48db8"/><polygon points="188.72 232.23 186.74 231.08 186.74 230.58 188.72 231.74 188.72 232.23" style="fill:#b48db8"/><polygon points="191.25 233.7 189.26 232.55 189.26 232.05 191.25 233.21 191.25 233.7" style="fill:#b48db8"/><path d="M269.67,234.86,216,203.64a1.25,1.25,0,0,0-.81-.19,10.45,10.45,0,0,0-1.55.85l.88,1.64v35.35a3.32,3.32,0,0,0,1.48,2.6l53,30.83.28,1.29,1.16-.72c.42-.05.7-.43.7-1.05V237.45A3.3,3.3,0,0,0,269.67,234.86Z" transform="translate(-71.13 -37.76)" style="fill:#7c4f84"/><path d="M268.42,275.83l-53.67-31.22a3.33,3.33,0,0,1-1.49-2.59V205.23a1.11,1.11,0,0,1,.37-.93,1,1,0,0,1,1.12.07l53.67,31.21a3.33,3.33,0,0,1,1.49,2.6V275C269.91,275.92,269.24,276.31,268.42,275.83Z" transform="translate(-71.13 -37.76)" style="fill:#956b9b"/><path d="M269.28,237.81V273.2c0,.53-.39.73-.86.45l-53.67-31.21a1.92,1.92,0,0,1-.86-1.51V205.59a.56.56,0,0,1,.3-.58.66.66,0,0,1,.56.08l53.67,31.22A1.9,1.9,0,0,1,269.28,237.81Z" transform="translate(-71.13 -37.76)" style="fill:#b48db8"/><path d="M269.28,237.81v35.38a.64.64,0,0,1-.55-.09l-53.68-31.22a1.91,1.91,0,0,1-.86-1.5V205a.59.59,0,0,1,.56.08l53.67,31.21A1.93,1.93,0,0,1,269.28,237.81Z" transform="translate(-71.13 -37.76)" style="fill:#190128"/><path d="M229.68,244.28a.62.62,0,0,1-.32-.09L218.66,238a.65.65,0,0,1,0-1.12l10.63-6.13a.63.63,0,0,1,.65,0l10.7,6.17a.65.65,0,0,1,0,1.12L230,244.19A.62.62,0,0,1,229.68,244.28Zm-9.41-6.82,9.41,5.43L239,237.5l-9.41-5.43Z" transform="translate(-71.13 -37.76)" style="fill:#dccbde"/><path d="M229.68,235.7a.61.61,0,0,1-.32-.08l-10.7-6.18a.64.64,0,0,1-.32-.56.62.62,0,0,1,.32-.55l10.63-6.14a.63.63,0,0,1,.65,0l10.7,6.18a.64.64,0,0,1,.32.55.66.66,0,0,1-.32.56L230,235.62A.61.61,0,0,1,229.68,235.7Zm-9.41-6.82,9.41,5.44,9.35-5.4-9.41-5.43Z" transform="translate(-71.13 -37.76)" style="fill:#dccbde"/><path d="M229.68,244.28a.62.62,0,0,1-.32-.09L218.66,238a.65.65,0,0,1-.32-.56l0-8.57a.65.65,0,0,1,.32-.56.66.66,0,0,1,.64,0l10.7,6.18a.62.62,0,0,1,.32.55l0,8.57a.66.66,0,0,1-.32.56A.68.68,0,0,1,229.68,244.28Zm-10.05-7.19,9.4,5.43,0-7.08L219.6,230Z" transform="translate(-71.13 -37.76)" style="fill:#dccbde"/><path d="M240.31,238.14a.62.62,0,0,1-.32-.09l-10.7-6.17a.67.67,0,0,1-.32-.56l0-8.57a.65.65,0,0,1,.32-.56.64.64,0,0,1,.64,0l10.7,6.18a.62.62,0,0,1,.32.55l0,8.57a.64.64,0,0,1-.32.56A.63.63,0,0,1,240.31,238.14ZM230.26,231l9.41,5.43,0-7.08-9.41-5.44Z" transform="translate(-71.13 -37.76)" style="fill:#dccbde"/><path d="M229.72,244.28a.65.65,0,0,1-.64-.65l0-8.57a.62.62,0,0,1,.32-.55l10.7-6.18a.66.66,0,0,1,.64,0,.65.65,0,0,1,.32.56l0,8.57a.65.65,0,0,1-.32.56L230,244.19A.62.62,0,0,1,229.72,244.28Zm.67-8.84,0,7.08,9.4-5.43,0-7.08Z" transform="translate(-71.13 -37.76)" style="fill:#dccbde"/><path d="M251.18,256.44a.62.62,0,0,1-.32-.09l-10.7-6.18a.62.62,0,0,1-.32-.55.65.65,0,0,1,.32-.56l10.63-6.14a.68.68,0,0,1,.65,0l10.69,6.18a.65.65,0,0,1,.33.56.63.63,0,0,1-.33.55l-10.63,6.14A.62.62,0,0,1,251.18,256.44Zm-9.41-6.82,9.41,5.43,9.35-5.39-9.42-5.44Z" transform="translate(-71.13 -37.76)" style="fill:#dccbde"/><path d="M251.18,256.44a.62.62,0,0,1-.32-.09l-10.7-6.18a.63.63,0,0,1-.31-.42.66.66,0,0,1,.11-.51l10.63-14.71a.64.64,0,0,1,.72-.24.64.64,0,0,1,.45.61l.06,20.89a.63.63,0,0,1-.32.56A.62.62,0,0,1,251.18,256.44Zm-9.76-7,9.11,5.26-.05-17.8Z" transform="translate(-71.13 -37.76)" style="fill:#dccbde"/><path d="M261.81,250.3a.62.62,0,0,1-.32-.09L250.79,244a.62.62,0,0,1-.32-.55l0-8.57a.66.66,0,0,1,.44-.62.64.64,0,0,1,.72.23l10.73,14.75a.65.65,0,0,1,0,.81A.64.64,0,0,1,261.81,250.3Zm-10.05-7.2,7.75,4.48-7.78-10.69Z" transform="translate(-71.13 -37.76)" style="fill:#dccbde"/><polygon points="193.78 235.17 191.79 234.02 191.79 233.52 193.78 234.68 193.78 235.17" style="fill:#b48db8"/><polygon points="191.5 233.82 189.52 232.66 189.52 232.16 191.5 233.32 191.5 233.82" style="fill:#b48db8"/><path d="M267.56,274.29c0,.49-.34.69-.76.44a1.67,1.67,0,0,1-.76-1.32c0-.49.34-.69.76-.44A1.69,1.69,0,0,1,267.56,274.29Z" transform="translate(-71.13 -37.76)" style="fill:#a27fb0"/><path d="M267.14,275.34a1.24,1.24,0,0,1-.59-.17,2.2,2.2,0,0,1-1-1.76,1,1,0,0,1,1.5-.87,2.19,2.19,0,0,1,1,1.75A1,1,0,0,1,267.14,275.34Zm-.6-1.95a1.18,1.18,0,0,0,.51.91,1.16,1.16,0,0,0-.5-.9Z" transform="translate(-71.13 -37.76)" style="fill:#b48db8"/><path d="M269.28,237.65v35.17a.69.69,0,0,1-.55-.1l-53.68-31.21a1.94,1.94,0,0,1-.86-1.51v-2A61.63,61.63,0,0,1,237,233.11C258.21,233.11,266.52,237,269.28,237.65Z" transform="translate(-71.13 -37.76)" style="opacity:0.06;fill:url(#linear-gradient-74)"/><path d="M110.51,273.78l-5.19,21.3s-1.82,1.67-2.36,1.61c-.15-.06-.17-.2-.09-.47.47-1.55,1.74-2.38,2-4.38.23-1.46,3-12,4.45-17.65.45-1.72-.47-2.74-1.81-2l-2,1.13c-6.65,3.69-18,10.09-19.37,11.5-1.9,2-6,7.11-6,7.11s-.73.51-.83.19c0-.15,0-.48.43-1.14A61.7,61.7,0,0,1,85,284.7l.16-.16.4-.37.19-.16.19-.16.32-.25.37-.24,19.17-11.06,2.08-1.21a3.6,3.6,0,0,1,.58-.26,2.54,2.54,0,0,1,.74-.12C110.68,270.68,111.57,271.84,110.51,273.78Z" transform="translate(-71.13 -37.76)" style="fill:#a2bfef"/><path d="M109.37,274.19c-1.47,5.62-4.22,16.19-4.45,17.65-.31,2-1.58,2.83-2,4.38-.08.27-.06.41,0,.46-.5-.13-4-1.07-3.59-2.52s1.74-2.37,2.05-4.37c.22-1.36,2.62-10.67,4.14-16.47l2-1.13C108.9,271.45,109.82,272.47,109.37,274.19Z" transform="translate(-71.13 -37.76)" style="fill:#879ade"/><path d="M109.18,270.71a2,2,0,0,0-.74.12,3.6,3.6,0,0,0-.58.26l-2.08,1.21L86.61,283.36l-.27.18-.33.24-.28.23-.19.16-.4.37-.16.16A61.7,61.7,0,0,0,79.74,291c-.38.66-.47,1-.43,1.14s-3.31-2-3.31-2c-.28.06-.44-.14.19-1.24,0,0,4.58-6.28,6.87-7.61L104.31,269a2,2,0,0,1,1.61,0l1.18.62Z" transform="translate(-71.13 -37.76)" style="fill:#a2bfef"/><polygon points="50.26 274.31 49.99 289.81 48.55 288.27 50.26 274.31" style="fill:#99aff0"/><g style="clip-path:url(#clip-path)"><path d="M149.26,373.1a1.08,1.08,0,0,1-.31.19Z" transform="translate(-71.13 -37.76)" style="fill:#1e3667"/><path d="M146.82,374.44a1.69,1.69,0,0,1-.49,1.32,1.45,1.45,0,0,1-1.71-.05,4.88,4.88,0,0,1-2.21-3.82,2,2,0,0,1,.18-.91,1.11,1.11,0,0,1,.65-.61,1.69,1.69,0,0,1,1.38.24,3.63,3.63,0,0,1,.64.49,5.24,5.24,0,0,1,1.47,2.53,3.76,3.76,0,0,1,.09.65Z" transform="translate(-71.13 -37.76)" style="fill:#2e1238"/><path d="M147,373.37a2,2,0,0,1-.18.91,3.76,3.76,0,0,0-.09-.65,5.24,5.24,0,0,0-1.47-2.53,3.63,3.63,0,0,0-.64-.49,1.67,1.67,0,0,0-1.37-.24,1.1,1.1,0,0,0-.66.61.86.86,0,0,1,0-.16,1.44,1.44,0,0,1,.84-1.51,1.69,1.69,0,0,1,1.31.2,3.37,3.37,0,0,1,.71.53,5.15,5.15,0,0,1,1.46,2.53A3.19,3.19,0,0,1,147,373.37Z" transform="translate(-71.13 -37.76)" style="fill:#562c77"/><path d="M149.76,371.78a2,2,0,0,1-.18.91,1.11,1.11,0,0,1-.32.41l-.31.19-2.13,1.22v-.23a2,2,0,0,0,.18-.91,3.19,3.19,0,0,0-.1-.8,5.15,5.15,0,0,0-1.46-2.53,3,3,0,0,0-.65-.49,1.73,1.73,0,0,0-1.37-.24l2.4-1.39a1.46,1.46,0,0,1,1.73,0A4.9,4.9,0,0,1,149.76,371.78Z" transform="translate(-71.13 -37.76)" style="fill:#925f97"/><path d="M149.58,372.84a1.68,1.68,0,0,1-.49,1.33l-.32.18-2.44,1.41a1.63,1.63,0,0,0,.49-1.25l2.13-1.22.31-.19a1.11,1.11,0,0,0,.32-.41Z" transform="translate(-71.13 -37.76)" style="fill:#3c0a59"/><path d="M96.46,342.62a1.09,1.09,0,0,1-.31.18Z" transform="translate(-71.13 -37.76)" style="fill:#1e3667"/><path d="M94,344a1.67,1.67,0,0,1-.5,1.32,1.45,1.45,0,0,1-1.71,0,4.86,4.86,0,0,1-2.21-3.82,2.2,2.2,0,0,1,.18-.91,1.19,1.19,0,0,1,.66-.61,1.75,1.75,0,0,1,1.37.24,3.69,3.69,0,0,1,.65.49,5.19,5.19,0,0,1,1.46,2.53,3.76,3.76,0,0,1,.09.65A.92.92,0,0,1,94,344Z" transform="translate(-71.13 -37.76)" style="fill:#2e1238"/><path d="M94.2,342.89a2,2,0,0,1-.19.9,3.76,3.76,0,0,0-.09-.65,5.19,5.19,0,0,0-1.46-2.53,3.69,3.69,0,0,0-.65-.49,1.75,1.75,0,0,0-1.37-.24,1.19,1.19,0,0,0-.66.61v-.15a1.45,1.45,0,0,1,.84-1.52,1.64,1.64,0,0,1,1.3.21,3.7,3.7,0,0,1,.72.52,5.3,5.3,0,0,1,1.46,2.53A3.74,3.74,0,0,1,94.2,342.89Z" transform="translate(-71.13 -37.76)" style="fill:#562c77"/><path d="M97,341.29a2,2,0,0,1-.19.91,1.21,1.21,0,0,1-.31.42l-.31.18L94,344a1.42,1.42,0,0,0,0-.24,2,2,0,0,0,.19-.9,3.74,3.74,0,0,0-.1-.81,5.3,5.3,0,0,0-1.46-2.53,4.1,4.1,0,0,0-.65-.49,1.74,1.74,0,0,0-1.37-.24l2.4-1.38a1.43,1.43,0,0,1,1.73,0A4.86,4.86,0,0,1,97,341.29Z" transform="translate(-71.13 -37.76)" style="fill:#925f97"/><path d="M96.78,342.35a1.67,1.67,0,0,1-.5,1.33l-.31.18-2.45,1.41A1.61,1.61,0,0,0,94,344l2.13-1.23.31-.18a1.21,1.21,0,0,0,.31-.42A.76.76,0,0,1,96.78,342.35Z" transform="translate(-71.13 -37.76)" style="fill:#3c0a59"/><path d="M96.46,373.1a1.44,1.44,0,0,1-.31.19Z" transform="translate(-71.13 -37.76)" style="fill:#1e3667"/><path d="M94,374.44a1.69,1.69,0,0,1-.5,1.32,1.45,1.45,0,0,1-1.71-.05,4.88,4.88,0,0,1-2.21-3.82,2.2,2.2,0,0,1,.18-.91,1.15,1.15,0,0,1,.66-.61,1.67,1.67,0,0,1,1.37.24,3.69,3.69,0,0,1,.65.49,5.15,5.15,0,0,1,1.46,2.53,3.76,3.76,0,0,1,.09.65A.86.86,0,0,1,94,374.44Z" transform="translate(-71.13 -37.76)" style="fill:#2e1238"/><path d="M94.2,373.37a2,2,0,0,1-.19.91,3.76,3.76,0,0,0-.09-.65,5.15,5.15,0,0,0-1.46-2.53,3.69,3.69,0,0,0-.65-.49,1.67,1.67,0,0,0-1.37-.24,1.15,1.15,0,0,0-.66.61v-.16a1.44,1.44,0,0,1,.84-1.51,1.67,1.67,0,0,1,1.3.2,3.73,3.73,0,0,1,.72.53,5.3,5.3,0,0,1,1.46,2.53A3.73,3.73,0,0,1,94.2,373.37Z" transform="translate(-71.13 -37.76)" style="fill:#562c77"/><path d="M97,371.78a2,2,0,0,1-.19.91,1.09,1.09,0,0,1-.31.41l-.31.19L94,374.51a1.29,1.29,0,0,0,0-.23,2,2,0,0,0,.19-.91,3.73,3.73,0,0,0-.1-.8A5.3,5.3,0,0,0,92.64,370a3.58,3.58,0,0,0-.65-.49,1.74,1.74,0,0,0-1.37-.24l2.4-1.39a1.46,1.46,0,0,1,1.73,0A4.9,4.9,0,0,1,97,371.78Z" transform="translate(-71.13 -37.76)" style="fill:#925f97"/><path d="M96.78,372.84a1.69,1.69,0,0,1-.5,1.33l-.31.18-2.45,1.41a1.63,1.63,0,0,0,.5-1.25l2.13-1.22.31-.19a1.09,1.09,0,0,0,.31-.41A.76.76,0,0,1,96.78,372.84Z" transform="translate(-71.13 -37.76)" style="fill:#3c0a59"/><path d="M149.26,342.62a.87.87,0,0,1-.31.18Z" transform="translate(-71.13 -37.76)" style="fill:#1e3667"/><path d="M146.82,344a1.67,1.67,0,0,1-.49,1.32,1.45,1.45,0,0,1-1.71,0,4.86,4.86,0,0,1-2.21-3.82,2,2,0,0,1,.18-.91,1.14,1.14,0,0,1,.65-.61,1.77,1.77,0,0,1,1.38.24,3.63,3.63,0,0,1,.64.49,5.29,5.29,0,0,1,1.47,2.53,3.76,3.76,0,0,1,.09.65Z" transform="translate(-71.13 -37.76)" style="fill:#2e1238"/><path d="M147,342.89a2,2,0,0,1-.18.9,3.76,3.76,0,0,0-.09-.65,5.29,5.29,0,0,0-1.47-2.53,3.63,3.63,0,0,0-.64-.49,1.76,1.76,0,0,0-1.37-.24,1.13,1.13,0,0,0-.66.61.76.76,0,0,1,0-.15,1.45,1.45,0,0,1,.84-1.52,1.66,1.66,0,0,1,1.31.21,3.34,3.34,0,0,1,.71.52,5.15,5.15,0,0,1,1.46,2.53A3.21,3.21,0,0,1,147,342.89Z" transform="translate(-71.13 -37.76)" style="fill:#562c77"/><path d="M149.76,341.29a2,2,0,0,1-.18.91,1.23,1.23,0,0,1-.32.42l-.31.18L146.82,344v-.24a2,2,0,0,0,.18-.9,3.21,3.21,0,0,0-.1-.81,5.15,5.15,0,0,0-1.46-2.53,3.36,3.36,0,0,0-.65-.49,1.73,1.73,0,0,0-1.37-.24l2.4-1.38a1.43,1.43,0,0,1,1.73,0A4.86,4.86,0,0,1,149.76,341.29Z" transform="translate(-71.13 -37.76)" style="fill:#925f97"/><path d="M149.58,342.35a1.67,1.67,0,0,1-.49,1.33l-.32.18-2.44,1.41a1.61,1.61,0,0,0,.49-1.24L149,342.8l.31-.18a1.23,1.23,0,0,0,.32-.42Z" transform="translate(-71.13 -37.76)" style="fill:#3c0a59"/><path d="M148.15,336.5c-.26-.05-1.08-.75-1.42-.82-8.18-1.71-17.65.53-27.12,6s-19,14.19-27.22,25.39c-.67.91-.87,2-.46,2.4s1.23.62,1.42.82c.43.42,1.26,0,1.88-.81C103,358.85,112,350.59,121,345.4s17.95-7.29,25.7-5.67c.62.14,1.45-.44,1.86-1.32S148.82,336.64,148.15,336.5Z" transform="translate(-71.13 -37.76)" style="fill:#aa80a0"/><path d="M148.15,367.88C140,356.72,130.51,348,121,342.55s-19-7.77-27.22-6.05c-.34.07-1.16.77-1.42.82-.67.14-.87,1-.46,1.88s1.26,1.49,1.88,1.36c7.78-1.64,16.79.51,25.8,5.72s18,13.43,25.7,24c.62.85,1.45,1.23,1.86.82.21-.21,1.14-.54,1.42-.82S148.82,368.79,148.15,367.88Z" transform="translate(-71.13 -37.76)" style="fill:#aa80a0"/><path d="M120.65,344.27a2.9,2.9,0,0,1-2.66,0c-.54-.31-.68-.77-.42-1.16V311l3.55,2.05V343.2C121.31,343.57,121.15,344,120.65,344.27Z" transform="translate(-71.13 -37.76)" style="fill:#452751"/><path d="M117.62,251.83s4.15.74,5.51.37a40.34,40.34,0,0,1,6.44-1,4,4,0,0,0,1.58-.18l7.7-3.62,6-2.3a16.28,16.28,0,0,0,4.21,0c1.12-.34,2-.57,1.58.33a3.43,3.43,0,0,1-2.72,1.58,4,4,0,0,0-1.57.39l4.51.23s.39,1.79-.91,1.79-4.69.26-4.69.26a10.78,10.78,0,0,0-3,2.26,13.58,13.58,0,0,0-2.05,3,2.45,2.45,0,0,0,2.8.9c2.07-.43,2.95.88,2.95,1.55s-1.51,1.63-2.4,1.48-1.7-.67-1.94-.65a8.5,8.5,0,0,1-3.46-.12c-2.49-.44-5.19-1.58-6.27-1.6a32,32,0,0,0-3.38.29s-14.59,1.92-17.47,1.76-6.9-.25-5.93-5.71S117.62,251.83,117.62,251.83Z" transform="translate(-71.13 -37.76)" style="fill:#ed8d9b"/><path d="M127.37,290.89l1.87,36.16a.69.69,0,0,0,.35.71c1.21.7,5.22-.47,9-2.63,1.54-.89,2.92-27.1,3.78-27.92.44-.3.61-11,.61-11Z" transform="translate(-71.13 -37.76)" style="fill:#2a3463;fill-rule:evenodd"/><path d="M135.27,231.63c-.64,1.56-1.71,1.84-1.66,2.8s1,.58.06,2.41-1.29,5.52-3.76,6.38l-.2.06c-2.34.76-3.67,0-4,1.93s-1.31,6.65-1.08,6.89c20.76,21.26-23.72,2.48-12.55-6.81l2.67-6.4.12-.29s-4.28-6.21-2.79-11.31,4.83-7.66,12.66-7.71,9.54,5.15,9.86,6.22S135.91,230.08,135.27,231.63Z" transform="translate(-71.13 -37.76)" style="fill:#ec6379"/><path d="M135.27,231.63c-.64,1.56-1.71,1.84-1.66,2.8s1,.58.06,2.41-1.29,5.52-3.76,6.38l-.2.06c-.12-.21-11,2-11.48-1.88-.34-2.83-2.23-1.3-3.45-2.51l.12-.29s-4.28-6.21-2.79-11.31,4.83-7.66,12.66-7.71,9.54,5.15,9.86,6.22S135.91,230.08,135.27,231.63Z" transform="translate(-71.13 -37.76)" style="fill:#ed8d9b"/><path d="M111.85,283.22h-2.76V284a.66.66,0,0,0,.4.63,2.1,2.1,0,0,0,2,0,.63.63,0,0,0,.4-.63S111.85,283.22,111.85,283.22Z" transform="translate(-71.13 -37.76)" style="fill:#879ade"/><path d="M111.44,283.79a2.16,2.16,0,0,1-2,0,.6.6,0,0,1,0-1.13,2.16,2.16,0,0,1,2,0A.6.6,0,0,1,111.44,283.79Z" transform="translate(-71.13 -37.76)" style="fill:#99aff0"/><path d="M121.26,299.12H118.5v.78a.68.68,0,0,0,.41.64,2.16,2.16,0,0,0,2,0,.64.64,0,0,0,.39-.64S121.26,299.12,121.26,299.12Z" transform="translate(-71.13 -37.76)" style="fill:#879ade"/><path d="M120.86,299.68a2.16,2.16,0,0,1-2,0,.6.6,0,0,1,0-1.13,2.16,2.16,0,0,1,2,0A.6.6,0,0,1,120.86,299.68Z" transform="translate(-71.13 -37.76)" style="fill:#99aff0"/><path d="M147.45,282.65c-6.42-2.21-17.42,3.55-25.81,7.66.51,7.1,2.08,14.06,3.32,21.07,6.25-2.17,11.37-8.87,18.86-14.21l7.1-3.63C151.4,286.19,150.85,283.81,147.45,282.65Z" transform="translate(-71.13 -37.76)" style="fill:#2a3463;fill-rule:evenodd"/><path d="M132.56,319.88l-5.14,3.93c.07,4.73,0,7.06,1.89,8.29,2.23,1.5,6,.29,8.27-.75l.61-1.84c2.19-.3,1.7.35,4.06-1,4-2.2,9.79-5.6,10.57-9.53.2-1-.58-2.82-1.59-2.64l-9.33,3.23Z" transform="translate(-71.13 -37.76)" style="fill:#1e3667;fill-rule:evenodd"/><path d="M154.72,336.12l-5.3,3.71c-.14,4.73-.24,7.06,1.53,8.36,2.17,1.59,6,.55,8.3-.4l.69-1.8c3.12-.3,2.26.17,5.43-1.47,3.84-2,8.5-4.79,9.34-8.26.24-1-.45-2.84-1.47-2.71l-6.6,2.92Z" transform="translate(-71.13 -37.76)" style="fill:#1e3667;fill-rule:evenodd"/><path d="M162.55,291.31c-.65,3.2-8.49,9.8-9.26,13,0,0-3.7,36.83-3.53,37,1,1,10.52,2.74,11.87-5,4-1,9.37-37.61,9.37-37.61C173.31,291,164.59,284.47,162.55,291.31Z" transform="translate(-71.13 -37.76)" style="fill:#190128;fill-rule:evenodd"/><path d="M162.74,312.92l-17.34,5.35-10.61,8.13-11.21,3.78-2.45-2.61L119.68,326l1.71-13.95.55-4.45-2.87-10.77-1.53-8.3A6,6,0,0,1,121,289C121.05,289,162.74,312.92,162.74,312.92Z" transform="translate(-71.13 -37.76)" style="fill:#562c77"/><path d="M113.53,291.51l-13.3-.52c-1.6,7.24-.7,15.81,2.63,19.3,4.82,5,14.12,11.86,23.42,9.73,6.91-1.59,18.81-8.67,26.85-14.39l17.56-7.71c3.31-6.61,5-10.74-4.2-12.73-6.64-1.42-24.21,5.72-32.6,9.83Z" transform="translate(-71.13 -37.76)" style="fill:#190128;fill-rule:evenodd"/><path d="M130.57,311.55a8.66,8.66,0,0,1-4.72.14c-7-1.26-25.78-7.48-25.44-19.56.15-5.06,3.72-5.86-1.13-18.91-9.36-25.18,4-32,6.53-32s7.15,2.09,7.15,2.09-3.17,4.73,1.49,7.62c7.59,4.68,7.81,2.35,10.45,2,3.06-.38,7.65,4.21,10.25,6.86,5,5.08-2.25,20.63-.19,24.73s3.72,13.8,3.72,13.8S140.74,307.42,130.57,311.55Z" transform="translate(-71.13 -37.76)" style="fill:#fdfdfd"/><path d="M130.57,311.55a8.66,8.66,0,0,1-4.72.14c-2.41-4.39-1.8-13.6-4.15-21.41-3.49-11.55,0-27.26,5.26-28.69a4.07,4.07,0,0,1,1.53-.15c1.58,1.24,2.89,2.28,3.27,2.67.8.8,1.17,2.47,1.24,4.61,0,.72,0,1.53,0,2.37-.1,2.36-.08,9.32,2,13.42s3.72,13.8,3.72,13.8S140.74,307.42,130.57,311.55Z" transform="translate(-71.13 -37.76)" style="fill:#e9e3ff"/><path d="M140.76,282.53s5.51-7.22,6.17-8.59,5.55-8.66,5.55-8.66l-1.87-1.46s-.33-1.43-.88-1.77-2.32-1.39-1.43-2a2.42,2.42,0,0,1,3.16.67c.79,1,1.25,1.55,1.25,1.55l1.91-4.56,0-4.49s-.11-2,.72-2.14,1.77-.08,1.25,1.15.14,1.72.14,1.72l.49,4,1.08-3.86a15.53,15.53,0,0,0,1.23-2.3c.16-.6,1.37-.54,1.41.32s-.12,3.13-.12,3.13l-1,3.27,2.12-3.52,2.32-2.06s1.56-.12,1,1a16,16,0,0,1-1.63,2.38L161.94,260l2.79-.71,2.82.08s.06,1.54-.87,1.61a10.94,10.94,0,0,0-1.58.23l-2,1s-.61,3.37-1.86,4.44a18,18,0,0,1-2.5,1.78s-10.82,24.91-14.45,27S138.76,286.53,140.76,282.53Z" transform="translate(-71.13 -37.76)" style="fill:#ed8d9b"/><path d="M139.28,279.13s2.08-3.23,5.67-2.24,7.12,6.09,6.62,9.28-4.39,9.8-8.42,9.54S135,283.94,139.28,279.13Z" transform="translate(-71.13 -37.76)" style="fill:#e9e3ff"/><path d="M124.29,268c0,6.83,8.85,33.29,18.2,28.59s1.35-15.08,0-18.7-2.25-18.45-8.75-18.91S124.25,261.15,124.29,268Z" transform="translate(-71.13 -37.76)" style="fill:#fdfdfd"/><path d="M128.68,237.12c-.16,0,.51-1.47-.79-.88a3.13,3.13,0,0,0-2,2.36c-.22,1.11-.27,3.76.48,3.22a7.65,7.65,0,0,0,1.57-2.09H127c-.49,0,0-1.88.28-2.25C128.37,236,128.68,237.12,128.68,237.12Z" transform="translate(-71.13 -37.76)" style="fill:#ec6379"/><path d="M121.6,241.28s1.29-3,7.25-5.69c2.92-1.31,9.8-8.17,3.8-13.18a11.09,11.09,0,0,0-6.43-2.78c-3.93-.59-13,2-13.53,9.89C112,240.44,119.35,246,121.6,241.28Z" transform="translate(-71.13 -37.76)" style="fill:#120a30;opacity:0.25"/><path d="M121.39,312.08,119.68,326l1.45,1.54,0,2.61-40-22.88-.09-.25a3.91,3.91,0,0,1-.59-.26c-6.35-3.67-1.26-12.09-1.26-18.85s-4.26-18.34-4.42-20.8.67-4.35,1-4.15l41.43,23.93.31,1.64,1.53,8.3,2.36,12.82Z" transform="translate(-71.13 -37.76)" style="fill:#c4a1ba"/><path d="M117.24,286.92s6.94,18.5,6.71,22.56-4.7,16-.32,18.5,24.23-11.44,27.47-13.31,11.76-3.42,11.76-1-4.26-.18-7.58,1.74-27,18.93-33.39,15.26-1.26-12.09-1.26-18.85-4.26-18.33-4.42-20.79S116.88,286.71,117.24,286.92Z" transform="translate(-71.13 -37.76)" style="fill:#925f97"/><path d="M155.5,299.76l-5.19,21.29s-1.82,1.68-2.36,1.62c-.15-.06-.17-.2-.09-.48.47-1.55,1.74-2.37,2-4.37.23-1.47,3-12,4.45-17.65.45-1.73-.47-2.74-1.81-2l-2.05,1.13c-6.65,3.68-18,10.09-19.37,11.5-1.9,2-6,7.11-6,7.11s-.73.5-.83.19c0-.15,0-.49.43-1.15a62.89,62.89,0,0,1,5.24-6.28l.17-.15c.13-.13.26-.26.39-.37l.19-.17.19-.15.32-.25.37-.24,19.17-11.07,2.09-1.2a3.62,3.62,0,0,1,.57-.27,2,2,0,0,1,.74-.11C155.31,296.73,156,298,155.5,299.76Z" transform="translate(-71.13 -37.76)" style="fill:#925f97"/><path d="M154.36,300.17c-1.47,5.62-4.22,16.18-4.45,17.65-.31,2-1.58,2.82-2,4.37-.08.28-.06.42,0,.46-.5-.12-4-1.07-3.59-2.51s1.74-2.37,2.05-4.37c.22-1.37,2.62-10.67,4.14-16.47l2.05-1.13C153.89,297.43,154.81,298.44,154.36,300.17Z" transform="translate(-71.13 -37.76)" style="fill:#c4a1ba"/><path d="M154.17,296.69a2,2,0,0,0-.74.11,3.62,3.62,0,0,0-.57.27l-2.09,1.2L131.6,309.34l-.27.17-.33.25-.28.22-.19.17c-.13.11-.26.24-.39.37l-.17.15a62.89,62.89,0,0,0-5.24,6.28c-.38.66-.47,1-.43,1.15s-3.31-2-3.31-2c-.28.05-.44-.14.19-1.24,0,0,4.58-6.29,6.87-7.61L149.3,295a1.91,1.91,0,0,1,1.61,0l1.19.62Z" transform="translate(-71.13 -37.76)" style="fill:#c4a1ba"/><path d="M119.88,243.27s-.18-11.05,5.78-13.71c2.92-1.31,12.14-1.61,9.37-11.1-.38-1.29-3.12-6.39-14.76-2.05-3.34,1.25-8.79,3.59-9.3,11.53C110.28,238.86,111.48,242.61,119.88,243.27Z" transform="translate(-71.13 -37.76)" style="fill:#120a30"/></g><polygon points="138.15 261.36 166.67 246.17 166.67 244.2 166.67 242.81 117.59 247.34 117.59 250.7 138.15 261.36" style="fill:#f7991d"/><polygon points="138.15 258 166.67 242.81 146.1 232.15 117.59 247.34 138.15 258" style="fill:#f6b735"/><polygon points="152.81 246.16 159.19 242.86 147.42 236.76 141.04 240.06 152.81 246.16" style="fill:#fad445"/><polygon points="138.48 258.85 138.48 260.63 118.36 250.45 118.36 248.45 138.48 258.85" style="fill:#fff"/><polygon points="138.48 258.85 166.67 243.94 166.67 245.52 138.48 260.63 138.48 258.85" style="fill:#d3e2f7"/><polygon points="243.47 59.89 216.12 44.1 216.12 12.71 243.47 28.5 243.47 59.89" style="fill:#a1e1fd"/><polygon points="250.19 56.08 243.44 59.89 243.44 28.5 250.19 24.69 250.19 56.08" style="fill:#32b2f6"/><polygon points="243.53 28.45 216.18 12.66 222.76 8.95 250.11 24.74 243.53 28.45" style="fill:#6dd1fd"/><path d="M297,70a3.33,3.33,0,0,1-.65,1.54,10,10,0,0,1,.75,3.05v3.94a5.71,5.71,0,0,0,.06.86,2.63,2.63,0,0,0,1.44,2l.32.18v4l-.32-.18a14.32,14.32,0,0,1-1.44-.94,8.75,8.75,0,0,1-3.65-6.62V73.79a5.75,5.75,0,0,0-.06-.87A2.58,2.58,0,0,0,292,71l-.31-.18v-4L292,67a3.81,3.81,0,0,0,.41.2,1.52,1.52,0,0,0,.37.11H293a.36.36,0,0,0,.24-.09.38.38,0,0,0,.09-.09.7.7,0,0,0,.13-.26.84.84,0,0,0,.05-.17,4.58,4.58,0,0,0,.06-.8V62.35c.27-2.52,1.38-3.3,3.65-2.38a12,12,0,0,1,1.44.72l.32.18v3.95l-.32-.18c-.9-.52-1.3-.38-1.44.3a4.42,4.42,0,0,0-.06.8V69.3C297.1,69.56,297.07,69.76,297,70Z" transform="translate(-71.13 -37.76)" style="fill:#1e3667"/><path d="M304.83,78.29a3.29,3.29,0,0,1,.65-1.54,10,10,0,0,1-.75-3.06V70.13a5.71,5.71,0,0,0-.06-.86,2.61,2.61,0,0,0-1.44-2l-.31-.18v-4l.31.18a14.32,14.32,0,0,1,1.44.94,8.75,8.75,0,0,1,3.65,6.62v3.54a5.75,5.75,0,0,0,.06.87,2.62,2.62,0,0,0,1.44,2l.31.18v4l-.31-.18a3.19,3.19,0,0,0-.41-.21,1.6,1.6,0,0,0-.36-.11h-.16a.42.42,0,0,0-.24.09l-.09.09a.79.79,0,0,0-.13.26,1,1,0,0,0-.05.18,4.46,4.46,0,0,0-.06.79v3.94c-.27,2.52-1.38,3.3-3.65,2.38a12,12,0,0,1-1.44-.72l-.31-.18V83.79l.31.18c.91.52,1.3.39,1.44-.3a4.42,4.42,0,0,0,.06-.8V78.93C304.76,78.68,304.79,78.48,304.83,78.29Z" transform="translate(-71.13 -37.76)" style="fill:#1e3667"/><polygon points="79.07 47.09 55.02 33.15 55.02 14.63 79.07 28.57 79.07 47.09" style="fill:#a1e1fd"/><polygon points="83.03 44.84 79.05 47.09 79.05 28.57 83.03 26.31 83.03 44.84" style="fill:#32b2f6"/><polygon points="79.1 28.54 55.06 14.6 58.94 12.41 82.98 26.34 79.1 28.54" style="fill:#6dd1fd"/><path d="M131.11,65.85,133.75,70v.75l-2-1.15-2.82-4.53v-1l2.82-1.26,2,1.15v.73Z" transform="translate(-71.13 -37.76)" style="fill:#1e3667"/><path d="M136.27,74.18l-2-1.13v-.61L139.67,65l2,1.12v.61Z" transform="translate(-71.13 -37.76)" style="fill:#1e3667"/><path d="M142.18,68.85l2,1.16L147,74.53v1l-2.83,1.26-2-1.16v-.75l2.66-1.12-2.66-4.18Z" transform="translate(-71.13 -37.76)" style="fill:#1e3667"/><polygon points="316.58 260.54 290.3 245.37 290.3 215.22 316.58 230.39 316.58 260.54" style="fill:#f6b735"/><polygon points="323.04 256.88 316.55 260.54 316.55 230.39 323.04 226.72 323.04 256.88" style="fill:#f7991d"/><polygon points="316.63 230.34 290.36 215.17 296.68 211.6 322.96 226.77 316.63 230.34" style="fill:#fad445"/><path d="M367.63,281.62l-.19-.11a5.61,5.61,0,0,1-3.11-5.43v-12c0-2.51.89-3.09,3.11-1.81l.19.11v2.39l-.19-.11c-.72-.42-.9-.15-.9.66v12.07a1.68,1.68,0,0,0,.9,1.71l.19.11Z" transform="translate(-71.13 -37.76)" style="fill:#2a3463"/><path d="M381.71,287.36c.72.41.91.13.91-.66V274.63a1.67,1.67,0,0,0-.91-1.71l-.19-.11v-2.39l.19.11a5.58,5.58,0,0,1,3.11,5.41v12c0,2.51-.89,3.11-3.11,1.83l-.19-.11v-2.39Z" transform="translate(-71.13 -37.76)" style="fill:#2a3463"/><polygon points="25.5 113.49 0 98.77 0 69.5 25.5 84.22 25.5 113.49" style="fill:#fcd838"/><polygon points="31.77 109.93 25.47 113.49 25.47 84.22 31.77 80.67 31.77 109.93" style="fill:#e8be33"/><polygon points="25.55 84.18 0.05 69.46 6.19 65.99 31.69 80.71 25.55 84.18" style="fill:#f2ca25"/><path d="M78.43,130.81v-2.74l1.75,1v-8.24l3,1.72v9.63c0,.8-.5,1.08-1.2.68Z" transform="translate(-71.13 -37.76)" style="fill:#1e3667"/><path d="M84,126.7v-2.31c0-.8.5-1.08,1.21-.67l5.21,3v1.35l-.47,1.15L87,127.52v.5l2.6,3.5a3.4,3.4,0,0,1,.81,2.34v2.5c0,.8-.49,1.08-1.19.67L84,134v-2.75l3.42,2v-.72L84.79,129A3.37,3.37,0,0,1,84,126.7Z" transform="translate(-71.13 -37.76)" style="fill:#1e3667"/><polygon points="124.88 113.29 97.95 97.74 97.95 66.84 124.88 82.39 124.88 113.29" style="fill:#ec6379"/><polygon points="131.5 109.53 124.85 113.29 124.85 82.39 131.5 78.63 131.5 109.53" style="fill:#ad3447"/><polygon points="124.93 82.34 98 66.79 104.48 63.13 131.41 78.68 124.93 82.34" style="fill:#d84e64"/><path d="M180.39,120.46v1.44l-.49,1.2-3.12-1.8v5.79l3.61,2.08v2.9l-5.51-3.17a2.66,2.66,0,0,1-1.27-2.19V118c0-.84.52-1.14,1.27-.71Z" transform="translate(-71.13 -37.76)" style="fill:#1e3667"/><path d="M183,131.26l-2-1.16v-2.34l2,1.16v-2.3l-2-1.17v-2.34l2,1.16V122l2.06,1.19v2.32l2,1.16v-2.33l2.05,1.19v2.32l2,1.16v2.35l-2-1.17v2.31l2,1.16V136l-2-1.16v2.3L187,135.9v-2.3l-2-1.15v2.3L183,133.56Zm2.06-1.15,2,1.15V129l-2-1.16Z" transform="translate(-71.13 -37.76)" style="fill:#1e3667"/><polygon points="201.42 138.18 174.49 122.63 174.49 91.73 201.42 107.27 201.42 138.18" style="fill:#f6b735"/><polygon points="208.04 134.42 201.39 138.18 201.39 107.27 208.04 103.52 208.04 134.42" style="fill:#f7991d"/><polygon points="201.47 107.23 174.55 91.68 181.03 88.02 207.95 103.57 201.47 107.23" style="fill:#fad445"/><polygon points="201.42 138.18 174.49 122.63 174.49 91.73 201.42 107.27 201.42 138.18" style="fill:#f6b735"/><polygon points="208.04 134.42 201.39 138.18 201.39 107.27 208.04 103.52 208.04 134.42" style="fill:#f7991d"/><polygon points="201.47 107.23 174.55 91.68 181.03 88.02 207.95 103.57 201.47 107.23" style="fill:#fad445"/><polygon points="201.42 138.18 174.49 122.63 174.49 91.73 201.42 107.27 201.42 138.18" style="fill:#f6b735"/><polygon points="208.04 134.42 201.39 138.18 201.39 107.27 208.04 103.52 208.04 134.42" style="fill:#f7991d"/><polygon points="201.47 107.23 174.55 91.68 181.03 88.02 207.95 103.57 201.47 107.23" style="fill:#fad445"/><polygon points="201.42 138.18 174.49 122.63 174.49 91.73 201.42 107.27 201.42 138.18" style="fill:#f6b735"/><polygon points="208.04 134.42 201.39 138.18 201.39 107.27 208.04 103.52 208.04 134.42" style="fill:#f7991d"/><polygon points="201.47 107.23 174.55 91.68 181.03 88.02 207.95 103.57 201.47 107.23" style="fill:#fad445"/><polygon points="201.42 138.18 174.49 122.63 174.49 91.73 201.42 107.27 201.42 138.18" style="fill:#f6b735"/><polygon points="208.04 134.42 201.39 138.18 201.39 107.27 208.04 103.52 208.04 134.42" style="fill:#f7991d"/><polygon points="201.47 107.23 174.55 91.68 181.03 88.02 207.95 103.57 201.47 107.23" style="fill:#fad445"/><polygon points="201.42 138.18 174.49 122.63 174.49 91.73 201.42 107.27 201.42 138.18" style="fill:#f6b735"/><polygon points="208.04 134.42 201.39 138.18 201.39 107.27 208.04 103.52 208.04 134.42" style="fill:#f7991d"/><polygon points="201.47 107.23 174.55 91.68 181.03 88.02 207.95 103.57 201.47 107.23" style="fill:#fad445"/><polygon points="201.42 138.18 174.49 122.63 174.49 91.73 201.42 107.27 201.42 138.18" style="fill:#f6b735"/><polygon points="208.04 134.42 201.39 138.18 201.39 107.27 208.04 103.52 208.04 134.42" style="fill:#f7991d"/><polygon points="201.47 107.23 174.55 91.68 181.03 88.02 207.95 103.57 201.47 107.23" style="fill:#fad445"/><polygon points="201.42 138.18 174.49 122.63 174.49 91.73 201.42 107.27 201.42 138.18" style="fill:#f6b735"/><polygon points="208.04 134.42 201.39 138.18 201.39 107.27 208.04 103.52 208.04 134.42" style="fill:#f7991d"/><polygon points="201.47 107.23 174.55 91.68 181.03 88.02 207.95 103.57 201.47 107.23" style="fill:#fad445"/><polygon points="201.42 138.18 174.49 122.63 174.49 91.73 201.42 107.27 201.42 138.18" style="fill:#f6b735"/><polygon points="208.04 134.42 201.39 138.18 201.39 107.27 208.04 103.52 208.04 134.42" style="fill:#f7991d"/><polygon points="201.47 107.23 174.55 91.68 181.03 88.02 207.95 103.57 201.47 107.23" style="fill:#fad445"/><polygon points="201.42 138.18 174.49 122.63 174.49 91.73 201.42 107.27 201.42 138.18" style="fill:#f6b735"/><polygon points="208.04 134.42 201.39 138.18 201.39 107.27 208.04 103.52 208.04 134.42" style="fill:#f7991d"/><polygon points="201.47 107.23 174.55 91.68 181.03 88.02 207.95 103.57 201.47 107.23" style="fill:#fad445"/><polygon points="201.42 138.18 174.49 122.63 174.49 91.73 201.42 107.27 201.42 138.18" style="fill:#f6b735"/><polygon points="208.04 134.42 201.39 138.18 201.39 107.27 208.04 103.52 208.04 134.42" style="fill:#f7991d"/><polygon points="201.47 107.23 174.55 91.68 181.03 88.02 207.95 103.57 201.47 107.23" style="fill:#fad445"/><polygon points="201.42 138.18 174.49 122.63 174.49 91.73 201.42 107.27 201.42 138.18" style="fill:#f6b735"/><polygon points="208.04 134.42 201.39 138.18 201.39 107.27 208.04 103.52 208.04 134.42" style="fill:#f7991d"/><polygon points="201.47 107.23 174.55 91.68 181.03 88.02 207.95 103.57 201.47 107.23" style="fill:#fad445"/><polygon points="201.42 138.18 174.49 122.63 174.49 91.73 201.42 107.27 201.42 138.18" style="fill:#f6b735"/><polygon points="208.04 134.42 201.39 138.18 201.39 107.27 208.04 103.52 208.04 134.42" style="fill:#f7991d"/><polygon points="201.47 107.23 174.55 91.68 181.03 88.02 207.95 103.57 201.47 107.23" style="fill:#fad445"/><polygon points="201.42 138.18 174.49 122.63 174.49 91.73 201.42 107.27 201.42 138.18" style="fill:#f6b735"/><polygon points="208.04 134.42 201.39 138.18 201.39 107.27 208.04 103.52 208.04 134.42" style="fill:#f7991d"/><polygon points="201.47 107.23 174.55 91.68 181.03 88.02 207.95 103.57 201.47 107.23" style="fill:#fad445"/><polygon points="201.42 138.18 174.49 122.63 174.49 91.73 201.42 107.27 201.42 138.18" style="fill:#f6b735"/><polygon points="208.04 134.42 201.39 138.18 201.39 107.27 208.04 103.52 208.04 134.42" style="fill:#f7991d"/><polygon points="201.47 107.23 174.55 91.68 181.03 88.02 207.95 103.57 201.47 107.23" style="fill:#fad445"/><polygon points="201.42 138.18 174.49 122.63 174.49 91.73 201.42 107.27 201.42 138.18" style="fill:#f6b735"/><polygon points="208.04 134.42 201.39 138.18 201.39 107.27 208.04 103.52 208.04 134.42" style="fill:#f7991d"/><polygon points="201.47 107.23 174.55 91.68 181.03 88.02 207.95 103.57 201.47 107.23" style="fill:#fad445"/><polygon points="201.42 138.18 174.49 122.63 174.49 91.73 201.42 107.27 201.42 138.18" style="fill:#f6b735"/><polygon points="208.04 134.42 201.39 138.18 201.39 107.27 208.04 103.52 208.04 134.42" style="fill:#f7991d"/><polygon points="201.47 107.23 174.55 91.68 181.03 88.02 207.95 103.57 201.47 107.23" style="fill:#fad445"/><polygon points="201.42 138.18 174.49 122.63 174.49 91.73 201.42 107.27 201.42 138.18" style="fill:#f6b735"/><polygon points="208.04 134.42 201.39 138.18 201.39 107.27 208.04 103.52 208.04 134.42" style="fill:#f7991d"/><polygon points="201.47 107.23 174.55 91.68 181.03 88.02 207.95 103.57 201.47 107.23" style="fill:#fad445"/><polygon points="201.42 138.18 174.49 122.63 174.49 91.73 201.42 107.27 201.42 138.18" style="fill:#f6b735"/><polygon points="208.04 134.42 201.39 138.18 201.39 107.27 208.04 103.52 208.04 134.42" style="fill:#f7991d"/><polygon points="201.47 107.23 174.55 91.68 181.03 88.02 207.95 103.57 201.47 107.23" style="fill:#fad445"/><polygon points="201.42 138.18 174.49 122.63 174.49 91.73 201.42 107.27 201.42 138.18" style="fill:#f6b735"/><polygon points="208.04 134.42 201.39 138.18 201.39 107.27 208.04 103.52 208.04 134.42" style="fill:#f7991d"/><polygon points="201.47 107.23 174.55 91.68 181.03 88.02 207.95 103.57 201.47 107.23" style="fill:#fad445"/><polygon points="201.42 138.18 174.49 122.63 174.49 91.73 201.42 107.27 201.42 138.18" style="fill:#fcd838"/><polygon points="208.04 134.42 201.39 138.18 201.39 107.27 208.04 103.52 208.04 134.42" style="fill:#e8be33"/><polygon points="201.47 107.23 174.55 91.68 181.03 88.02 207.95 103.57 201.47 107.23" style="fill:#f2ca25"/><path d="M250.15,151.87v3.62L247,153.66V142.05l6.33,3.65a2.63,2.63,0,0,1,1.28,2.18V153c0,.85-.52,1.16-1.28.72Zm0-2.9,1.27.73v-2.17l-1.27-.73Z" transform="translate(-71.13 -37.76)" style="fill:#1e3667"/><path d="M260,153.79v-4.21l3.16,1.82V163L260,161.18v-4.49l-1.27-.73v4.49l-3.16-1.82V147l3.16,1.82v4.21Z" transform="translate(-71.13 -37.76)" style="fill:#1e3667"/><path d="M267.5,161.89v3.61l-3.17-1.83V152.06l6.33,3.65a2.66,2.66,0,0,1,1.27,2.19V163c0,.85-.52,1.16-1.27.73Zm0-2.91,1.26.73v-2.17l-1.26-.73Z" transform="translate(-71.13 -37.76)" style="fill:#1e3667"/><polygon points="158.95 50.16 132.03 34.61 132.03 3.71 158.95 19.25 158.95 50.16" style="fill:#96cc46"/><polygon points="165.57 46.4 158.92 50.16 158.92 19.25 165.57 15.5 165.57 46.4" style="fill:#254f24"/><polygon points="159.01 19.21 132.08 3.66 138.56 0 165.49 15.55 159.01 19.21" style="fill:#6d8a42"/><path d="M212.85,56.19v1.44l-.49,1.19L209.25,57v5.79l3.6,2.09v2.9l-5.5-3.18a2.63,2.63,0,0,1-1.27-2.18V53.72c0-.85.52-1.14,1.27-.71Z" transform="translate(-71.13 -37.76)" style="fill:#1e3667"/><path d="M216,62.63V59.71L218,60.89v2.92l2.56,1.48v2.34L218,66.15v2.94L216,67.91V65l-2.54-1.47V61.16Z" transform="translate(-71.13 -37.76)" style="fill:#1e3667"/><path d="M223.7,67.09V64.17l2,1.19v2.91l2.57,1.48v2.34l-2.57-1.48v2.94l-2-1.18V69.43L221.15,68V65.62Z" transform="translate(-71.13 -37.76)" style="fill:#1e3667"/><polygon points="309.36 131.64 280.33 114.88 280.33 81.57 309.36 98.33 309.36 131.64" style="fill:#ec6379"/><polygon points="316.49 127.59 309.33 131.64 309.33 98.33 316.49 94.28 316.49 127.59" style="fill:#ad3447"/><polygon points="309.42 98.28 280.39 81.52 287.37 77.57 316.4 94.33 309.42 98.28" style="fill:#d84e64"/><path d="M362.34,135v1.56l-.53,1.29-3.36-1.94v6.24l3.89,2.24v3.13l-5.93-3.43a2.81,2.81,0,0,1-1.38-2.34v-9.41c0-.91.56-1.23,1.38-.76Z" transform="translate(-71.13 -37.76)" style="fill:#1e3667"/><path d="M363,139.56v-2.63c0-.91.57-1.23,1.38-.76l5.93,3.43v1.54l-.53,1.3-3.36-1.94v.57l3,4a3.87,3.87,0,0,1,.92,2.67v2.84c0,.91-.56,1.23-1.36.77L363,147.89v-3.12l3.89,2.24v-.82l-3-4A3.89,3.89,0,0,1,363,139.56Z" transform="translate(-71.13 -37.76)" style="fill:#1e3667"/><path d="M370.88,144.14v-2.63c0-.91.56-1.23,1.37-.76l5.93,3.42v1.54l-.53,1.3-3.35-1.93v.57l3,4a3.88,3.88,0,0,1,.91,2.66v2.84c0,.91-.56,1.23-1.35.77l-5.95-3.43v-3.13l3.89,2.25v-.83l-3-4A3.89,3.89,0,0,1,370.88,144.14Z" transform="translate(-71.13 -37.76)" style="fill:#1e3667"/><polygon points="264.96 187.41 237.51 171.57 237.51 140.07 264.96 155.92 264.96 187.41" style="fill:#96cc46"/><polygon points="271.7 183.58 264.93 187.41 264.93 155.92 271.7 152.09 271.7 183.58" style="fill:#254f24"/><polygon points="265.01 155.87 237.57 140.02 244.17 136.29 271.62 152.14 265.01 155.87" style="fill:#6d8a42"/><path d="M311.61,193.29v-2.48c0-.87.53-1.17,1.3-.73l5.61,3.24v1.46L318,196l-3.17-1.83v.54l2.8,3.76a3.65,3.65,0,0,1,.88,2.52v2.68c0,.87-.54,1.17-1.29.73l-5.62-3.24v-3l3.67,2.12v-.78l-2.8-3.75A3.63,3.63,0,0,1,311.61,193.29Z" transform="translate(-71.13 -37.76)" style="fill:#1e3667"/><path d="M324.5,208.61l.65,1.52v1.48l-2.45-1.42-.49-2.9-1.52-.88a2.68,2.68,0,0,1-1.3-2.22V195.3c0-.86.53-1.16,1.3-.72l5.15,3a2.69,2.69,0,0,1,1.3,2.22v8.89c0,.87-.53,1.17-1.3.73Zm-1.88-9.94v5.9l1.29.74v-5.9Z" transform="translate(-71.13 -37.76)" style="fill:#1e3667"/><path d="M328.31,199l3.22,1.86v8.87l3.25,1.88v3l-6.47-3.74Z" transform="translate(-71.13 -37.76)" style="fill:#1e3667"/><path d="M203,257.25a3.43,3.43,0,0,0-3,3.65c0,2.6,2.42,4.91,3.5,5a3.48,3.48,0,0,0,3.5-1.27c1.09-1.17,2.09-4.77.3-6.28C206.28,257.52,205.4,257,203,257.25Z" transform="translate(-71.13 -37.76)" style="fill:#ea6f00"/><path d="M202.81,257.7c.45-.84-2.81.54-2.81,2.81s2.12,4.31,3.07,4.42a3,3,0,0,0,3.07-1.11c1-1,1.83-4.18.27-5.51C205.51,257.55,201.41,260.29,202.81,257.7Z" transform="translate(-71.13 -37.76)" style="fill:#ff871a"/><path d="M201.52,259.33a1,1,0,0,0-.88,1.09,1.69,1.69,0,0,0,1,1.49,1,1,0,0,0,1-.37c.32-.35.62-1.42.09-1.87A1.43,1.43,0,0,0,201.52,259.33Z" transform="translate(-71.13 -37.76)" style="fill:#ffae59"/><path d="M203.66,258.07s-.48-1.44-.22-1.94l.26-.49.44.25s-.42.26-.48.5A15.5,15.5,0,0,0,203.66,258.07Z" transform="translate(-71.13 -37.76)" style="fill:#6d8a42"/><path d="M193.46,278.85a7.46,7.46,0,0,1-6.76,0c-1.87-1.08-1.88-2.83,0-3.9a7.46,7.46,0,0,1,6.76,0C195.31,276,195.32,277.78,193.46,278.85Z" transform="translate(-71.13 -37.76)" style="fill:#d84e64"/><rect x="114.16" y="230.79" width="9.56" height="8.24" style="fill:#d84e64"/><path d="M193.46,270.41a7.49,7.49,0,0,1-6.76,0c-1.87-1.08-1.88-2.83,0-3.9a7.46,7.46,0,0,1,6.76,0C195.31,267.59,195.32,269.34,193.46,270.41Z" transform="translate(-71.13 -37.76)" style="fill:#ed8d9b"/><path d="M194.27,268.47a1.25,1.25,0,0,1-.29.76,2.83,2.83,0,0,1-.81.68,6.91,6.91,0,0,1-6.18,0,2.63,2.63,0,0,1-.84-.71,1.27,1.27,0,0,1-.28-.74A1.82,1.82,0,0,1,187,267a6.22,6.22,0,0,1,3.07-.73,6.41,6.41,0,0,1,3.11.74A1.88,1.88,0,0,1,194.27,268.47Z" transform="translate(-71.13 -37.76)" style="fill:#d84e64"/><path d="M194,269.23a2.83,2.83,0,0,1-.81.68,6.91,6.91,0,0,1-6.18,0,2.63,2.63,0,0,1-.84-.71,2.54,2.54,0,0,1,.81-.68,6.86,6.86,0,0,1,6.18,0A2.65,2.65,0,0,1,194,269.23Z" transform="translate(-71.13 -37.76)" style="fill:#761f24"/><path d="M194.7,270.91l-.72.41.87.56a3.43,3.43,0,0,1,1.41,2l.07.92c0,1-.4,1.42-1.17,1.35l-.46-.05-.72.42,1.12.95A2.24,2.24,0,0,0,197,275.4l0-1.48a3,3,0,0,0-1.24-2.29Z" transform="translate(-71.13 -37.76)" style="fill:#ed8d9b"/><path d="M194,271.32v.78l.78.45a2.07,2.07,0,0,1,1,1.64v.9c0,1-.5,1.54-1.27,1.46l-.46,0v.91l.93,0c.84,0,1.38-.6,1.4-1.64l0-1.48a2.86,2.86,0,0,0-1.17-2.29Z" transform="translate(-71.13 -37.76)" style="fill:#ec6379"/></svg>